<svg width="7" height="11" viewBox="0 0 7 11" fill="none" xmlns="http://www.w3.org/2000/svg">
<path d="M4.89998 5.77994L4.74998 5.62994L0.549984 1.37994C0.399984 1.22994 0.299984 1.07994 0.399984 0.879936C0.425238 0.807928 0.46664 0.742655 0.521016 0.689117C0.575393 0.63558 0.641302 0.595199 0.713695 0.571068C0.786088 0.546937 0.863044 0.539697 0.938667 0.5499C1.01429 0.560104 1.08658 0.587482 1.14998 0.629936L1.24998 0.729936L5.84998 5.32994L6.04998 5.67994C6.04998 5.82994 5.99998 5.97994 5.89998 6.07994L1.19998 10.7799C1.10652 10.8715 0.980861 10.9229 0.849984 10.9229C0.719108 10.9229 0.593449 10.8715 0.499984 10.7799C0.408371 10.6865 0.357056 10.5608 0.357056 10.4299C0.357056 10.2991 0.408371 10.1734 0.499984 10.0799L4.74998 5.87994L4.89998 5.77994Z" fill="#CD4D33"/>
</svg>
