<svg xmlns="http://www.w3.org/2000/svg" width="316" height="189.905" viewBox="0 0 316 189.905">
  <g id="Group_3398" data-name="Group 3398" transform="translate(-1245 -274)">
    <path id="Path_33341" data-name="Path 33341" d="M448.767,730.318H756.678c.453,0,.82-.255.82-.571s-.367-.571-.82-.571H448.767c-.453,0-.82.255-.82.571S448.314,730.318,448.767,730.318Z" transform="translate(803.502 -266.413)" fill="#b5b5b5"/>
    <path id="Path_798" data-name="Path 798" d="M551.449,716.039l-8.182-22.909s9,4.5,9.409,10.227c0,0-2.046-28.637-6.137-34.773,0,0,6.546.818,13.909,32.728,0,0,1.227-36.819-9.818-47.455,0,0,15.137,12.273,16.364,38.864v23.318Z" transform="translate(779.952 -253.275)" fill="rgba(0,123,79,0.5)"/>
    <path id="Path_799" data-name="Path 799" d="M1062.188,821.738l-1.967-5.508s2.164,1.082,2.262,2.459c0,0-.492-6.885-1.475-8.361,0,0,1.574.2,3.344,7.869,0,0,.3-8.853-2.361-11.41,0,0,3.639,2.951,3.934,9.345v5.607Z" transform="translate(422.656 -358.975)" fill="rgba(0,123,79,0.5)"/>
    <circle id="Ellipse_194" data-name="Ellipse 194" cx="35.967" cy="35.967" r="35.967" transform="translate(1412.432 343.453)" fill="rgba(205,77,51,0.5)"/>
    <rect id="Rectangle_414" data-name="Rectangle 414" width="84.832" height="47.129" transform="translate(1245 276.729)" fill="#f2f2f2"/>
    <rect id="Rectangle_415" data-name="Rectangle 415" width="84.832" height="47.129" transform="translate(1360.094 276.729)" fill="#f2f2f2"/>
    <rect id="Rectangle_416" data-name="Rectangle 416" width="84.832" height="47.129" transform="translate(1475.187 276.729)" fill="#f2f2f2"/>
    <path id="Path_800" data-name="Path 800" d="M991.576,714.052a17.665,17.665,0,0,1-1.865-6.988c-.427-4.27-.152-11.466,3.58-21.505a43.367,43.367,0,0,0-1.718-34.516l.429-.249a38.087,38.087,0,0,1,3.594,10.181,44.415,44.415,0,0,1-1.839,24.757C986.7,704.717,991.946,713.7,992,713.793Z" transform="translate(471.493 -251.159)" fill="#373737"/>
    <circle id="Ellipse_195" data-name="Ellipse 195" cx="3.225" cy="3.225" r="3.225" transform="translate(1457.079 392.317)" fill="#cd4d33"/>
    <circle id="Ellipse_196" data-name="Ellipse 196" cx="3.225" cy="3.225" r="3.225" transform="translate(1467.249 404.224)" fill="#373737"/>
    <circle id="Ellipse_197" data-name="Ellipse 197" cx="3.225" cy="3.225" r="3.225" transform="translate(1460.305 412.161)" fill="#cd4d33"/>
    <circle id="Ellipse_198" data-name="Ellipse 198" cx="3.225" cy="3.225" r="3.225" transform="translate(1468.738 418.858)" fill="#cd4d33"/>
    <circle id="Ellipse_199" data-name="Ellipse 199" cx="3.225" cy="3.225" r="3.225" transform="translate(1457.824 429.276)" fill="#373737"/>
    <path id="Path_801" data-name="Path 801" d="M1001.235,824.914s-3.225-7.937,6.449-13.891Z" transform="translate(463.78 -361.903)" fill="#373737"/>
    <path id="Path_802" data-name="Path 802" d="M960.849,836.805s-1.468-8.441-12.826-8.368Z" transform="translate(500.201 -373.938)" fill="#373737"/>
    <rect id="Rectangle_417" data-name="Rectangle 417" width="84.584" height="4.217" transform="translate(1245.124 274)" fill="#707070"/>
    <rect id="Rectangle_418" data-name="Rectangle 418" width="84.832" height="4.217" transform="translate(1360.218 274)" fill="#707070"/>
    <rect id="Rectangle_419" data-name="Rectangle 419" width="84.584" height="4.217" transform="translate(1475.311 274)" fill="#707070"/>
    <rect id="Rectangle_420" data-name="Rectangle 420" width="15.379" height="10.914" transform="translate(1251.449 284.789)" fill="#fff"/>
    <rect id="Rectangle_421" data-name="Rectangle 421" width="42.416" height="1.24" transform="translate(1280.967 284.789)" fill="#fff"/>
    <rect id="Rectangle_422" data-name="Rectangle 422" width="42.416" height="1.24" transform="translate(1280.967 289.75)" fill="#fff"/>
    <rect id="Rectangle_423" data-name="Rectangle 423" width="42.416" height="1.24" transform="translate(1280.967 294.711)" fill="#fff"/>
    <rect id="Rectangle_424" data-name="Rectangle 424" width="15.379" height="10.914" transform="translate(1366.542 284.789)" fill="#fff"/>
    <rect id="Rectangle_425" data-name="Rectangle 425" width="42.416" height="1.24" transform="translate(1396.06 284.789)" fill="#fff"/>
    <rect id="Rectangle_426" data-name="Rectangle 426" width="42.416" height="1.24" transform="translate(1396.06 289.75)" fill="#fff"/>
    <rect id="Rectangle_427" data-name="Rectangle 427" width="42.416" height="1.24" transform="translate(1396.06 294.711)" fill="#fff"/>
    <rect id="Rectangle_428" data-name="Rectangle 428" width="15.379" height="10.914" transform="translate(1481.637 284.789)" fill="#fff"/>
    <rect id="Rectangle_429" data-name="Rectangle 429" width="42.416" height="1.24" transform="translate(1511.153 284.789)" fill="#fff"/>
    <rect id="Rectangle_430" data-name="Rectangle 430" width="42.416" height="1.24" transform="translate(1511.153 289.75)" fill="#fff"/>
    <rect id="Rectangle_431" data-name="Rectangle 431" width="42.416" height="1.24" transform="translate(1511.153 294.711)" fill="#fff"/>
    <circle id="Ellipse_200" data-name="Ellipse 200" cx="4.961" cy="4.961" r="4.961" transform="translate(1254.178 285.41)" fill="#cd4d33"/>
    <circle id="Ellipse_201" data-name="Ellipse 201" cx="4.961" cy="4.961" r="4.961" transform="translate(1484.365 285.41)" fill="#cd4d33"/>
    <rect id="Rectangle_432" data-name="Rectangle 432" width="0.496" height="1.488" transform="translate(1284.135 323.856)" fill="#3f3d56"/>
    <path id="Path_803" data-name="Path 803" d="M417.21,476.444h-.5v-2.977h.5Zm0-5.953h-.5v-2.977h.5Zm0-5.953h-.5v-2.977h.5Zm0-5.953h-.5v-2.977h.5Zm0-5.953h-.5v-2.977h.5Zm0-5.953h-.5V443.7h.5Zm0-5.953h-.5v-2.977h.5Zm0-5.953h-.5V431.8h.5Zm0-5.953h-.5v-2.977h.5Zm0-5.953h-.5V419.89h.5Z" transform="translate(867.421 -91.568)" fill="#3f3d56"/>
    <path id="Path_804" data-name="Path 804" d="M128.45,370.382h-1.736v-1.736h.5v1.24h1.24Z" transform="translate(1157.421 19.207)" fill="#3f3d56"/>
    <path id="Path_805" data-name="Path 805" d="M656.282,617.158h-2.99v-.5h2.99Zm-5.98,0h-2.99v-.5h2.99Zm-5.98,0h-2.99v-.5h2.99Zm-5.98,0h-2.989v-.5h2.99Zm-5.98,0h-2.99v-.5h2.99Zm-5.98,0h-2.99v-.5h2.99Zm-5.98,0h-2.99v-.5h2.99Zm-5.98,0h-2.99v-.5h2.99Zm-5.98,0h-2.99v-.5h2.99Zm-5.981,0h-2.99v-.5h2.99Zm-5.98,0h-2.99v-.5h2.99Zm-5.981,0h-2.99v-.5h2.99Zm-5.98,0h-2.99v-.5h2.99Zm-5.981,0h-2.99v-.5h2.99Zm-5.98,0h-2.99v-.5h2.99Zm-5.98,0h-2.99v-.5h2.99Zm-5.98,0h-2.99v-.5h2.99Zm-5.981,0h-2.99v-.5h2.99Zm-5.98,0h-2.99v-.5h2.99Zm-5.98,0h-2.99v-.5h2.99Zm-5.98,0h-2.99v-.5h2.99Zm-5.98,0H527.7v-.5h2.99Zm-5.98,0h-2.99v-.5h2.99Zm-5.98,0h-2.99v-.5h2.99Zm-5.98,0h-2.99v-.5h2.99Zm-5.98,0h-2.99v-.5h2.99Zm-5.98,0H497.8v-.5h2.99Zm-5.98,0h-2.99v-.5h2.99Zm-5.98,0h-2.99v-.5h2.99Zm-5.98,0h-2.99v-.5h2.99Zm-5.98,0h-2.99v-.5h2.99Zm-5.98,0H467.9v-.5h2.99Zm-5.98,0h-2.99v-.5h2.99Zm-5.98,0h-2.99v-.5h2.99Zm-5.98,0h-2.99v-.5h2.99Zm-5.98,0h-2.99v-.5h2.99Zm-5.98,0H438v-.5h2.99Zm-5.98,0h-2.99v-.5h2.99Z" transform="translate(856.843 -227.568)" fill="#3f3d56"/>
    <path id="Path_806" data-name="Path 806" d="M879.579,370.382h-1.736v-.5h1.24v-1.24h.5Z" transform="translate(638.271 19.207)" fill="#3f3d56"/>
    <path id="Path_807" data-name="Path 807" d="M1172.35,476.444h-.5v-2.977h.5Zm0-5.953h-.5v-2.977h.5Zm0-5.953h-.5v-2.977h.5Zm0-5.953h-.5v-2.977h.5Zm0-5.953h-.5v-2.977h.5Zm0-5.953h-.5V443.7h.5Zm0-5.953h-.5v-2.977h.5Zm0-5.953h-.5V431.8h.5Zm0-5.953h-.5v-2.977h.5Zm0-5.953h-.5V419.89h.5Z" transform="translate(345.5 -91.568)" fill="#3f3d56"/>
    <rect id="Rectangle_433" data-name="Rectangle 433" width="0.496" height="1.488" transform="translate(1517.355 323.856)" fill="#3f3d56"/>
    <rect id="Rectangle_434" data-name="Rectangle 434" width="84.832" height="88.304" transform="translate(1360.094 374.459)" fill="#707070"/>
    <rect id="Rectangle_435" data-name="Rectangle 435" width="15.379" height="10.914" transform="translate(1366.542 385.992)" fill="#fff"/>
    <rect id="Rectangle_436" data-name="Rectangle 436" width="42.416" height="1.24" transform="translate(1396.06 385.992)" fill="#fff"/>
    <rect id="Rectangle_437" data-name="Rectangle 437" width="42.416" height="1.24" transform="translate(1396.06 390.953)" fill="#fff"/>
    <rect id="Rectangle_438" data-name="Rectangle 438" width="42.416" height="1.24" transform="translate(1396.06 395.914)" fill="#fff"/>
    <rect id="Rectangle_439" data-name="Rectangle 439" width="15.379" height="10.914" transform="translate(1366.542 425.308)" fill="#fff"/>
    <rect id="Rectangle_440" data-name="Rectangle 440" width="42.416" height="1.24" transform="translate(1396.06 425.308)" fill="#fff"/>
    <rect id="Rectangle_441" data-name="Rectangle 441" width="42.416" height="1.24" transform="translate(1396.06 430.269)" fill="#fff"/>
    <rect id="Rectangle_442" data-name="Rectangle 442" width="42.416" height="1.24" transform="translate(1396.06 435.229)" fill="#fff"/>
    <path id="Path_808" data-name="Path 808" d="M406.871,364.413l-5.264-7.019,1.247-.935,4.288,5.718,10.931-8.853.987,1.206Z" transform="translate(967.426 29.797)" fill="#cd4d33"/>
    <path id="Path_809" data-name="Path 809" d="M406.871,490.507l-5.264-7.019,1.247-.935,4.288,5.718,10.931-8.853.987,1.207Z" transform="translate(967.426 -57.354)" fill="#cd4d33"/>
  </g>
</svg>
