<svg xmlns="http://www.w3.org/2000/svg" width="257.164" height="237.566" viewBox="0 0 257.164 237.566">
  <g id="Group_3402" data-name="Group 3402" transform="translate(-805 -221.479)">
    <g id="Group_3401" data-name="Group 3401" transform="translate(-451.617 -40.051)">
      <path id="Path_33458" data-name="Path 33458" d="M567.453,461.372a8.022,8.022,0,1,1-8.022-8.022,8.022,8.022,0,0,1,8.022,8.022Z" transform="translate(818.481 -107.914)" fill="#c3c3c2"/>
      <path id="Path_33459" data-name="Path 33459" d="M546.25,500.9h9.437s8.494-24.829,23.843-29.609,37,0,37,0c-5.606-18.233-23.546-21.6-47.842-16.1H553.729Z" transform="translate(821.206 -107.618)" fill="#c3c3c2"/>
      <path id="Path_33460" data-name="Path 33460" d="M662.83,656.13l5.134,11.985v16.27l14.378,27.594H699.3V656.13Z" transform="translate(759.636 -215.01)" fill="#c3c3c2"/>
      <path id="Path_33461" data-name="Path 33461" d="M776.57,656.13l-5.134,11.985v16.27l-14.382,27.594H740.11V656.13Z" transform="translate(718.821 -215.01)" fill="#c3c3c2"/>
      <path id="Path_33462" data-name="Path 33462" d="M667.964,684.385l9.909-16.029h12.164l9.258,16.029V656.13H662.83l5.134,11.985Z" transform="translate(759.636 -215.01)" fill="#cd4d33"/>
      <path id="Path_33463" data-name="Path 33463" d="M771.437,684.385l-9.909-16.029h-12.16l-9.258,16.029V656.13H776.57l-5.134,11.985Z" transform="translate(718.821 -215.01)" fill="#cd4d33"/>
      <path id="Path_33464" data-name="Path 33464" d="M490.794,398.3h-4.931s-18.214,11.348-18.813,25.981h23.744Z" transform="translate(863.035 -78.84)" fill="#373737"/>
      <path id="Path_33465" data-name="Path 33465" d="M517.37,398.3H522.3s18.218,11.348,18.813,25.981H517.37Z" transform="translate(836.459 -78.84)" fill="#373737"/>
      <rect id="Rectangle_566" data-name="Rectangle 566" width="9.857" height="19.861" transform="translate(1348.898 299.6)" fill="#cd4d33"/>
      <path id="Path_33466" data-name="Path 33466" d="M516.381,355.272A8.291,8.291,0,1,1,508.091,347a8.291,8.291,0,0,1,8.291,8.272Z" transform="translate(845.738 -51.746)" fill="#373737"/>
      <rect id="Rectangle_567" data-name="Rectangle 567" width="2.539" height="7.465" transform="translate(1352.555 287.817)" fill="#373737"/>
      <path id="Path_33467" data-name="Path 33467" d="M516.768,294.154c0,8.46-2.185,12-4.874,12s-4.893-3.511-4.893-12,4.874-18.624,4.874-18.624S516.768,285.708,516.768,294.154Z" transform="translate(841.936 -14)" fill="#cd4d33"/>
      <path id="Path_33468" data-name="Path 33468" d="M361.353,519.165c-.217-.354-6.667-10.489-8.819-21.63-2.93-15.18,1.194-28.165,11.929-37.56,14.425-12.627,48.535-5.927,49.979-5.634l-1.331,6.606c-8.965-1.8-34.323-4.568-44.223,4.1-21.512,18.823-2.024,50.244-1.836,50.541Zm51.787-58.227h0l.665-3.3Z" transform="translate(924 -107.362)" fill="#373737"/>
      <path id="Path_33469" data-name="Path 33469" d="M427.719,453.36s14.944,85.6-35.139,113.246h59.058V453.36Z" transform="translate(903.455 -107.919)" fill="#c3c3c2"/>
      <path id="Path_33470" data-name="Path 33470" d="M541.654,453.36s-14.944,85.6,35.139,113.246H517.74V453.36Z" transform="translate(836.264 -107.919)" fill="#c3c3c2"/>
      <path id="Path_33471" data-name="Path 33471" d="M392.58,693.38c1.165,14.326,14.689,32.143,59.058,32.143V693.38Z" transform="translate(902.366 -234.684)" fill="#373737"/>
      <path id="Path_33472" data-name="Path 33472" d="M576.556,693.38c-2.973,36.546-63.276,32.143-59.053,32.143V693.38Z" transform="translate(836.501 -234.684)" fill="#373737"/>
      <path id="Path_33473" data-name="Path 33473" d="M490.963,753.58h-18.5a5.426,5.426,0,1,0,0,10.853h18.5Z" transform="translate(863.04 -266.478)" fill="#373737"/>
      <path id="Path_33474" data-name="Path 33474" d="M517.74,753.58h18.492a5.426,5.426,0,1,1,0,10.853H517.74Z" transform="translate(836.264 -266.478)" fill="#373737"/>
      <path id="Path_33475" data-name="Path 33475" d="M374.39,579.18l-12.24,7.847c27.193,27.528,11.763,44.638,6.545,46.766C395.067,633.793,390.485,598.715,374.39,579.18Z" transform="translate(918.437 -174.37)" fill="#cd4d33"/>
      <path id="Path_33476" data-name="Path 33476" d="M687.768,667.284a2.784,2.784,0,1,1-2.784-2.784,2.784,2.784,0,0,1,2.784,2.784Z" transform="translate(749.405 -219.431)" fill="#373737"/>
      <path id="Path_33477" data-name="Path 33477" d="M708.558,667.284a2.784,2.784,0,1,1-2.784-2.784,2.784,2.784,0,0,1,2.784,2.784Z" transform="translate(738.426 -219.431)" fill="#373737"/>
      <path id="Path_33478" data-name="Path 33478" d="M729.368,667.284a2.784,2.784,0,1,1-2.784-2.784,2.784,2.784,0,0,1,2.784,2.784Z" transform="translate(727.435 -219.431)" fill="#373737"/>
      <path id="Path_33479" data-name="Path 33479" d="M750.178,667.284a2.784,2.784,0,1,1-2.784-2.784,2.784,2.784,0,0,1,2.784,2.784Z" transform="translate(716.444 -219.431)" fill="#373737"/>
      <path id="Path_33480" data-name="Path 33480" d="M770.978,667.284A2.784,2.784,0,1,1,768.2,664.5,2.784,2.784,0,0,1,770.978,667.284Z" transform="translate(705.459 -219.431)" fill="#373737"/>
      <path id="Path_33481" data-name="Path 33481" d="M791.768,667.284a2.784,2.784,0,1,1-2.784-2.784,2.784,2.784,0,0,1,2.784,2.784Z" transform="translate(694.479 -219.431)" fill="#373737"/>
    </g>
    <path id="Path_33482" data-name="Path 33482" d="M448.628,730.318h255.8a.58.58,0,1,0,0-1.141h-255.8a.58.58,0,1,0,0,1.141Z" transform="translate(357.053 -271.272)" fill="#b5b5b5"/>
  </g>
</svg>
