<svg width="24" height="24" viewBox="0 0 24 24" fill="none" xmlns="http://www.w3.org/2000/svg">
<path d="M20.625 4.79995H17.1V4.57495L16.95 4.19995C16.725 3.29995 15.975 2.69995 15 2.69995H8.62495C7.64995 2.69995 6.89995 3.29995 6.67495 4.27495V4.57495L6.59995 4.72495H4.27495L2.92495 4.79995C2.26854 4.79995 1.63901 5.06071 1.17486 5.52486C0.710709 5.98901 0.449951 6.61854 0.449951 7.27495V18.225C0.449951 19.425 1.42495 20.475 2.62495 20.625H20.625C21.1699 20.6504 21.7081 20.4951 22.1557 20.1831C22.6032 19.8712 22.9352 19.4201 23.1 18.9L23.25 18.525V6.89995C23.1571 6.28374 22.8353 5.72521 22.3487 5.33592C21.8621 4.94663 21.2465 4.75523 20.625 4.79995ZM21.15 19.65H3.14995C2.77495 19.65 2.39995 19.65 2.02495 19.425C1.82817 19.2778 1.67053 19.0846 1.56591 18.8623C1.46129 18.64 1.41289 18.3954 1.42495 18.15V7.42495C1.42495 6.37495 2.02495 5.77495 3.07495 5.77495H6.97495C7.19995 5.77495 7.34995 5.77495 7.49995 5.62495L7.64995 5.17495V4.72495C7.64995 4.04995 8.02495 3.67495 8.62495 3.67495H15.075C15.675 3.67495 16.05 4.04995 16.05 4.72495V5.02495C16.05 5.32495 16.05 5.47495 16.2 5.62495L16.7999 5.77495H20.625C21.45 5.77495 22.05 6.14995 22.2 6.89995L22.275 7.42495V17.925C22.275 18.825 21.9 19.425 21.15 19.65Z" fill="#CD4D33"/>
<path d="M11.85 7.50001C10.4576 7.50001 9.12223 8.05313 8.13766 9.0377C7.1531 10.0223 6.59998 11.3576 6.59998 12.75C6.59998 14.1424 7.1531 15.4778 8.13766 16.4623C9.12223 17.4469 10.4576 18 11.85 18C12.8447 18.008 13.8212 17.7331 14.6657 17.2076C15.5103 16.682 16.1881 15.9274 16.6204 15.0314C17.0526 14.1355 17.2214 13.1353 17.1072 12.1471C16.9929 11.159 16.6003 10.2236 15.975 9.45001L15.225 10.2C15.6948 10.8321 15.981 11.5817 16.0517 12.3662C16.1225 13.1506 15.9752 13.9393 15.6261 14.6454C15.277 15.3514 14.7396 15.9472 14.0733 16.3671C13.4069 16.787 12.6375 17.0147 11.85 17.025C10.65 17.025 9.59998 16.65 8.84998 15.825C8.44122 15.4406 8.11681 14.9754 7.89733 14.4589C7.67784 13.9425 7.56807 13.3861 7.57498 12.825C7.56501 12.2573 7.66823 11.6934 7.87861 11.166C8.08898 10.6386 8.4023 10.1585 8.80027 9.75353C9.19823 9.34858 9.67288 9.02696 10.1965 8.80745C10.7201 8.58793 11.2822 8.47492 11.85 8.47501C12.4782 8.47187 13.0971 8.6266 13.65 8.92501L14.025 7.95001C13.3233 7.6101 12.5547 7.43076 11.775 7.42501L11.85 7.50001ZM19.65 7.42501C19.5158 7.41465 19.3809 7.4322 19.2538 7.47654C19.1267 7.52088 19.0102 7.59106 18.9115 7.68265C18.8129 7.77424 18.7343 7.88526 18.6807 8.00872C18.6271 8.13218 18.5996 8.26541 18.6 8.40001C18.6 8.92501 19.05 9.37501 19.65 9.37501C20.175 9.37501 20.625 8.92501 20.625 8.40001C20.625 7.87501 20.175 7.42501 19.65 7.42501Z" fill="#CD4D33"/>
</svg>
