<svg width="36" height="36" viewBox="0 0 36 36" fill="none" xmlns="http://www.w3.org/2000/svg">
<g clip-path="url(#clip0_0_1951)">
<path d="M25.2391 15.9239C25.2439 15.924 25.2487 15.9244 25.2535 15.9246C25.2986 15.9099 25.2215 15.9208 25.2391 15.9239ZM10.9688 15.9243C10.9166 15.9065 11.0268 15.9248 10.9688 15.9243V15.9243Z" fill="#4B5563"/>
<path d="M10.3515 16.9718V22.6535C10.3515 23.5746 11.1008 24.3238 12.0217 24.3238H19.9252C19.9947 24.3238 20.0634 24.3101 20.1276 24.2836C20.1918 24.257 20.2502 24.218 20.2993 24.1689C20.3484 24.1198 20.3874 24.0614 20.414 23.9972C20.4405 23.9331 20.4542 23.8643 20.4542 23.7948C20.4542 23.7253 20.4405 23.6565 20.414 23.5923C20.3874 23.5281 20.3484 23.4698 20.2993 23.4207C20.2502 23.3716 20.1918 23.3326 20.1276 23.306C20.0634 23.2794 19.9947 23.2657 19.9252 23.2657H12.0217C11.7264 23.2657 11.4792 23.0554 11.422 22.7768C11.4051 22.6942 11.4095 22.7616 11.4095 21.4391H24.8064V22.6535C24.8064 22.991 24.5317 23.2657 24.1942 23.2657H21.7826C21.7131 23.2657 21.6443 23.2794 21.5801 23.306C21.5159 23.3326 21.4576 23.3716 21.4085 23.4207C21.3593 23.4698 21.3204 23.5281 21.2938 23.5923C21.2672 23.6565 21.2535 23.7253 21.2535 23.7948C21.2535 23.8643 21.2672 23.9331 21.2938 23.9972C21.3204 24.0614 21.3593 24.1198 21.4085 24.1689C21.4576 24.218 21.5159 24.257 21.5801 24.2836C21.6443 24.3101 21.7131 24.3238 21.7826 24.3238H24.1942C25.1152 24.3238 25.8644 23.5746 25.8644 22.6535V16.9775C29.4353 16.6991 32.1286 13.6425 32.0773 10.2421C32.0774 10.2372 32.0775 10.2323 32.0775 10.2274C32.0775 6.04741 28.2866 2.84727 24.1412 3.59202C21.5919 -1.22441 14.7264 -1.17441 12.2119 3.60475C8.05286 2.81267 4.2019 6.00747 4.2019 10.2274C4.2019 10.2323 4.20212 10.2372 4.20212 10.2421C4.20212 10.2468 4.2019 10.2514 4.2019 10.2561C4.2019 13.7739 6.91042 16.6706 10.3515 16.9718ZM11.0258 4.55896C11.2529 4.56536 11.5607 4.57274 11.7845 4.60586C11.5544 5.29401 11.4374 6.01489 11.4379 6.74049C11.4379 6.88078 11.4937 7.01534 11.5929 7.11454C11.6921 7.21375 11.8266 7.26948 11.9669 7.26948C12.1072 7.26948 12.2418 7.21375 12.341 7.11454C12.4402 7.01534 12.4959 6.88078 12.4959 6.74049C12.4959 2.45598 17.027 -0.210777 20.7529 1.67459C22.6224 2.62627 23.8642 4.56002 23.8642 6.74049C23.8642 6.88079 23.9199 7.01536 24.0191 7.11457C24.1183 7.21378 24.2529 7.26952 24.3932 7.26952C24.5335 7.26952 24.6681 7.21378 24.7673 7.11457C24.8665 7.01536 24.9222 6.88079 24.9222 6.74049C24.9228 6.01127 24.8047 5.28682 24.5724 4.59559C24.7713 4.56866 25.0534 4.56473 25.2538 4.55882C28.383 4.55882 31.0113 7.11399 31.0192 10.2416C31.0114 13.3693 28.383 15.9245 25.2535 15.9245C25.2462 15.9245 25.2417 15.9242 25.2391 15.9238C24.459 15.9003 23.628 15.7349 22.9247 15.4051C22.7981 15.3481 22.6541 15.3432 22.5239 15.3914C22.3936 15.4397 22.2876 15.5372 22.2286 15.6629C22.1697 15.7886 22.1625 15.9325 22.2087 16.0635C22.2548 16.1945 22.3506 16.302 22.4754 16.363C23.2086 16.7078 23.9985 16.9161 24.8064 16.9775V20.381H22.1399V18.7227C22.1399 18.6532 22.1262 18.5844 22.0996 18.5202C22.0731 18.456 22.0341 18.3977 21.985 18.3486C21.9358 18.2995 21.8775 18.2605 21.8133 18.2339C21.7491 18.2073 21.6803 18.1937 21.6109 18.1937C21.5414 18.1937 21.4726 18.2073 21.4084 18.2339C21.3442 18.2605 21.2859 18.2995 21.2368 18.3486C21.1876 18.3977 21.1487 18.456 21.1221 18.5202C21.0955 18.5844 21.0818 18.6532 21.0818 18.7227V20.381H18.5261V18.7227C18.5261 18.5824 18.4704 18.4478 18.3711 18.3486C18.2719 18.2494 18.1374 18.1937 17.9971 18.1937C17.8568 18.1937 17.7222 18.2494 17.623 18.3486C17.5238 18.4478 17.468 18.5824 17.468 18.7227V20.381H14.9124V18.7227C14.9124 18.5824 14.8567 18.4478 14.7575 18.3486C14.6583 18.2494 14.5237 18.1937 14.3834 18.1937C14.2431 18.1937 14.1085 18.2494 14.0093 18.3486C13.9101 18.4478 13.8544 18.5824 13.8544 18.7227V20.381H11.4096V16.9818C12.2394 16.9267 13.0516 16.7168 13.8042 16.363C13.9289 16.302 14.0248 16.1945 14.0709 16.0635C14.1171 15.9325 14.1099 15.7886 14.051 15.6629C13.992 15.5372 13.8859 15.4397 13.7557 15.3914C13.6255 15.3432 13.4815 15.3481 13.3549 15.4051C12.6304 15.7448 11.7732 15.9096 10.9688 15.9242C7.87153 15.8932 5.2682 13.3374 5.26046 10.2417C5.26827 7.11413 7.89642 4.55896 11.0258 4.55896Z" fill="#4B5563"/>
<path d="M11.0258 4.55891C10.9743 4.57564 11.0829 4.55891 11.0258 4.55891V4.55891ZM25.2538 4.55884C25.1967 4.55884 25.3055 4.57564 25.2538 4.55884V4.55884ZM32.0504 25.3711C30.4899 22.668 25.0103 24.4199 24.8494 27.5451L18.4116 31.2618L12.1622 27.6538L12.2306 27.5353C12.691 26.7377 12.4166 25.7143 11.6191 25.2538L7.40516 22.8208C7.34499 22.786 7.27857 22.7635 7.20969 22.7544C7.14081 22.7453 7.07082 22.7499 7.00371 22.7679C6.9366 22.7859 6.87369 22.8169 6.81856 22.8592C6.76344 22.9015 6.71719 22.9542 6.68245 23.0144C6.64771 23.0745 6.62516 23.1409 6.61609 23.2098C6.60701 23.2787 6.6116 23.3487 6.62958 23.4158C6.64755 23.4829 6.67857 23.5458 6.72086 23.601C6.76316 23.6561 6.81589 23.7023 6.87606 23.7371L11.0901 26.1701C11.3824 26.3389 11.4829 26.714 11.3142 27.0063L10.6515 28.154L5.88605 25.4028C5.76454 25.3327 5.62014 25.3137 5.48461 25.35C5.34908 25.3863 5.23353 25.475 5.16338 25.5965C5.09322 25.718 5.07421 25.8624 5.11053 25.9979C5.14684 26.1335 5.23551 26.249 5.35702 26.3192L10.1224 29.0704L9.45984 30.2181C9.29095 30.5103 8.91576 30.6109 8.62347 30.4422L4.40948 28.0093C4.34932 27.9745 4.2829 27.952 4.21402 27.9429C4.14514 27.9338 4.07514 27.9384 4.00803 27.9564C3.94093 27.9744 3.87802 28.0054 3.8229 28.0477C3.76778 28.09 3.72154 28.1427 3.68681 28.2029C3.65206 28.2631 3.62951 28.3295 3.62044 28.3984C3.61136 28.4673 3.61595 28.5373 3.63393 28.6044C3.65191 28.6715 3.68294 28.7344 3.72524 28.7895C3.76754 28.8446 3.82028 28.8909 3.88045 28.9256C8.44389 31.5602 8.33329 31.5819 8.9268 31.5819C9.50442 31.5819 10.0671 31.2823 10.3762 30.7472L10.4444 30.6289L15.1764 33.3608C14.4559 34.5136 15.2913 35.9914 16.6317 35.9914C17.1952 35.9914 17.443 35.7879 18.4116 35.2287L19.3337 35.761C20.8729 36.6498 22.5867 34.881 21.6538 33.3693L23.5596 32.3082C23.6203 32.2744 23.6737 32.229 23.7169 32.1745C23.76 32.1201 23.792 32.0577 23.8111 31.9908C23.8301 31.924 23.8357 31.8541 23.8277 31.7851C23.8197 31.7161 23.7982 31.6493 23.7644 31.5886C23.7306 31.5279 23.6852 31.4744 23.6308 31.4313C23.5763 31.3881 23.5139 31.3561 23.4471 31.3371C23.3802 31.3181 23.3103 31.3124 23.2413 31.3204C23.1723 31.3284 23.1055 31.35 23.0448 31.3838L20.7938 32.6371L19.4696 31.8726L25.6441 28.3078C25.7295 28.2585 25.7994 28.1863 25.846 28.0993C25.8925 28.0123 25.9138 27.9141 25.9074 27.8156C25.7619 25.5578 30.0964 24.1026 31.1339 25.9C32.1736 27.7006 28.7404 30.7205 26.8617 29.4685C26.7796 29.4138 26.6839 29.3832 26.5853 29.38C26.4868 29.3768 26.3893 29.4012 26.3038 29.4505L24.5844 30.4431C24.4629 30.5133 24.3742 30.6289 24.3379 30.7644C24.3016 30.8999 24.3206 31.0443 24.3908 31.1658C24.4609 31.2873 24.5765 31.376 24.712 31.4123C24.8475 31.4486 24.9919 31.4296 25.1134 31.3595L26.5669 30.5203C29.3583 31.9456 33.609 28.0701 32.0504 25.3711ZM16.9605 34.8449C16.352 35.1966 15.6839 34.4671 16.0937 33.8907L17.3535 34.618L16.9605 34.8449ZM20.8298 34.103C20.942 34.5212 20.6266 34.9335 20.1916 34.9335C19.9646 34.9335 19.9723 34.9082 18.6769 34.1604C18.6769 34.1604 16.3174 32.7981 16.2988 32.7873L16.2987 32.7872L10.9734 29.7127L11.6331 28.5701C21.3523 34.1815 20.7315 33.7358 20.8298 34.103Z" fill="#4B5563"/>
</g>
<defs>
<clipPath id="clip0_0_1951">
<rect width="36" height="36" fill="white"/>
</clipPath>
</defs>
</svg>
