<svg width="36" height="36" viewBox="0 0 36 36" fill="none" xmlns="http://www.w3.org/2000/svg">
<g clip-path="url(#clip0_0_1947)">
<path d="M18.0003 7.86848C19.5498 7.86848 20.8104 6.60784 20.8104 5.05831C20.8104 3.50878 19.5498 2.24814 18.0003 2.24814C16.4507 2.24814 15.1901 3.50878 15.1901 5.05831C15.1901 6.60784 16.4507 7.86848 18.0003 7.86848ZM18.0003 3.37221C18.9299 3.37221 19.6864 4.12871 19.6864 5.05831C19.6864 5.98792 18.9299 6.74441 18.0003 6.74441C17.0707 6.74441 16.3142 5.98792 16.3142 5.05831C16.3142 4.12871 17.0701 3.37221 18.0003 3.37221ZM17.4382 0H18.5623V1.12407H17.4382V0ZM17.4382 8.99255H18.5623V10.1166H17.4382V8.99255ZM21.9345 4.49628H23.0586V5.62035H21.9345V4.49628ZM12.942 4.49628H14.066V5.62035H12.942V4.49628ZM21.9739 8.23718L21.1791 9.03189L20.3844 8.23718L21.1791 7.44246L21.9739 8.23718ZM15.615 1.87832L14.8203 2.67304L14.0256 1.87832L14.8203 1.0836L15.615 1.87832ZM15.615 8.23718L14.8203 9.03189L14.0256 8.23718L14.8203 7.44246L15.615 8.23718ZM21.9744 1.87944L21.1797 2.67416L20.385 1.87944L21.1797 1.08473L21.9744 1.87944ZM32.2068 13.2089L33.6321 14.3493C34.3004 14.8832 35.1301 15.1743 35.9854 15.1749V14.0509C35.3855 14.0501 34.8036 13.846 34.3347 13.472L32.4024 11.9264C32.3386 11.8753 32.2644 11.8387 32.185 11.8193C32.1056 11.7998 32.0229 11.7979 31.9427 11.8137C31.8625 11.8295 31.7867 11.8626 31.7206 11.9107C31.6544 11.9588 31.5996 12.0207 31.5599 12.0922C30.7035 13.6251 29.5509 14.9725 28.1691 16.0561C26.7873 17.1396 25.204 17.9376 23.511 18.4038L23.2564 18.4735C21.7545 17.7216 20.3586 16.7746 19.1047 15.6572C18.2485 14.8916 17.463 14.0506 16.7576 13.1443C16.712 13.0854 16.6551 13.0362 16.5903 12.9995C16.5254 12.9628 16.4539 12.9395 16.3799 12.9307C16.306 12.922 16.231 12.9281 16.1594 12.9486C16.0878 12.9692 16.021 13.0038 15.9629 13.0504C12.3507 15.9399 8.06125 18.0273 3.58128 19.0822L3.38737 19.1193V17.4231C4.62722 17.4231 5.63551 16.4148 5.63551 15.1749V10.1166H4.51144V11.6993C4.1836 11.5838 3.89955 11.3697 3.69828 11.0863C3.49701 10.8029 3.38841 10.4642 3.38737 10.1166V8.99255H2.26331V10.1166C2.26436 10.7641 2.4885 11.3914 2.89799 11.8929C3.30747 12.3944 3.87728 12.7395 4.51144 12.87V15.1749C4.51144 15.7949 4.00674 16.299 3.38737 16.299V15.737C3.38737 15.5879 3.32816 15.445 3.22276 15.3395C3.11736 15.2341 2.9744 15.1749 2.82534 15.1749C2.20542 15.1749 1.70127 14.6708 1.70127 14.0509V12.3648H0.577202V14.0509C0.577777 14.5491 0.743614 15.0331 1.04873 15.427C1.35385 15.8209 1.78101 16.1025 2.26331 16.2276V19.3357L0.523246 19.6712H0.0151672V20.7953H0.577202C0.612851 20.7953 0.648419 20.7919 0.683426 20.7852L3.81621 20.181C8.00224 19.1963 12.0028 17.3444 15.4852 14.813C15.8421 17.4607 17.5225 20.0607 20.0545 21.7884C22.2931 23.3166 25.1859 24.2585 28.8964 24.6688L29.0206 23.5515C27.946 23.4351 26.8795 23.2528 25.8272 23.0058C26.5713 22.6871 27.2879 22.2656 28.0073 21.8187C29.1701 21.0965 30.2706 20.2681 31.3357 19.4666C31.9118 19.0333 32.4873 18.5994 33.0746 18.1807C33.0775 18.1784 33.0805 18.1764 33.0836 18.1745L33.1376 18.2217L34.4224 19.3565C34.4819 19.4099 34.5421 19.4666 34.6016 19.524C34.9147 19.8235 35.343 20.2332 35.9854 20.2332V19.1092C35.8078 19.1092 35.6375 18.9585 35.3789 18.7113C35.3092 18.6438 35.2382 18.5776 35.1659 18.5129L33.8817 17.3787C33.7704 17.2803 33.6647 17.187 33.5855 17.0909C33.4991 16.9869 33.3782 16.9175 33.2448 16.8955C33.1114 16.8735 32.9745 16.9004 32.8593 16.9712C32.7093 17.0634 32.5654 17.1628 32.4226 17.2646C31.8293 17.6909 31.2417 18.1252 30.6601 18.5674C29.9435 19.1069 29.2089 19.656 28.458 20.1742L28.1315 20.1062C27.3222 19.9399 26.5584 19.7825 25.8109 19.5363C25.4711 19.4222 25.1349 19.2979 24.8026 19.1637C27.8589 18.0801 30.4971 15.9708 32.2068 13.2089ZM27.1221 21.0426C25.998 21.7305 24.9515 22.2886 23.8067 22.4111C22.6387 21.9924 21.5979 21.481 20.6874 20.8599C18.4285 19.3183 16.9268 17.0252 16.6025 14.7023C17.1488 15.3354 17.7339 15.934 18.3544 16.4946C19.7217 17.716 21.2491 18.7454 22.8945 19.5543C23.7237 19.9632 24.5802 20.3142 25.4579 20.6047C26.0087 20.7857 26.5679 20.9212 27.1221 21.0426ZM34.3426 27.5689C34.147 27.7319 33.9508 27.8938 33.753 28.054C33.2848 28.4356 32.8065 28.8234 32.3192 29.2146C29.3635 29.1156 26.3291 28.9718 23.7072 27.5582C22.7731 27.0547 21.9598 26.3729 21.0982 25.6507C20.5957 25.2303 20.0776 24.7947 19.5324 24.399C18.6607 23.7668 17.5141 23.6667 16.6795 24.1495C16.3625 24.3333 16.1175 24.5851 15.9421 24.8835L15.9342 24.8751C14.8855 25.8283 14.0407 26.4139 13.0527 27.0384L13.0634 26.9906C10.7894 26.4819 8.87058 25.5462 7.0243 24.0455C6.79705 23.8606 6.57222 23.6726 6.34986 23.4818C5.78782 23.0001 5.44667 23.0153 4.93185 23.5599C4.53465 23.9778 4.10484 24.3635 3.64647 24.7132C2.69045 25.4439 1.27244 26.4156 0.0151672 26.4156V27.5397C1.61303 27.5397 3.24237 26.437 4.32991 25.6069C4.81298 25.2378 5.26764 24.8329 5.69003 24.3957C5.89686 24.5721 6.10537 24.7469 6.3167 24.9184C8.02023 26.3021 9.78333 27.2373 11.7954 27.8224C11.597 27.9455 11.3936 28.0725 11.1794 28.208C9.75185 29.1117 7.63804 29.6226 4.73907 29.7727C3.88861 29.1191 3.08828 28.4027 2.3448 27.6296L1.53154 28.4052C3.25698 30.215 5.28705 31.7358 7.56385 32.9251C10.9737 34.7062 14.6292 35.6723 17.9283 35.6723C18.1256 35.6723 18.3212 35.669 18.5157 35.6617L18.4763 34.5381C15.2109 34.6579 11.5284 33.7283 8.0843 31.9292C7.42686 31.5813 6.78704 31.2011 6.1672 30.7899C8.57889 30.5466 10.4308 30.0115 11.7808 29.1578C12.1523 28.9223 12.4974 28.7093 12.8239 28.507C13.8598 27.8668 14.732 27.3267 15.6982 26.5556C15.8325 27.379 16.2383 28.2254 16.8779 28.9611C17.6732 29.8761 18.6978 30.5235 19.6021 31.0946L20.2023 30.1447C19.3638 29.6147 18.4128 29.0145 17.7266 28.2237C17.1926 27.6099 16.847 26.886 16.7767 26.2375C16.7205 25.7176 16.8824 25.332 17.2449 25.1224C17.7018 24.8577 18.356 24.9324 18.8731 25.309C19.3863 25.6822 19.8904 26.1048 20.3777 26.5129C21.2443 27.2396 22.1402 27.9904 23.1755 28.5485C25.608 29.8598 28.3754 30.165 30.9737 30.288C29.9521 31.0954 28.9165 31.8848 27.8674 32.6559C26.3083 33.7974 24.2237 35.0738 21.9918 34.8495C21.9728 34.8473 21.9537 34.8462 21.9345 34.8461H21.3725V35.9702H21.9064C22.1149 35.9904 22.3206 36 22.5252 36C24.8796 36 26.954 34.7174 28.5317 33.5625C30.6275 32.0275 32.6216 30.4269 34.4651 28.9257C34.6652 28.7621 34.8647 28.598 35.0642 28.4328L35.5155 28.0562L34.7956 27.1929L34.3426 27.5689Z" fill="#4B5563"/>
<path d="M12.942 21.9193H14.066V23.0433H12.942V21.9193ZM10.6938 21.9193H11.8179V23.0433H10.6938V21.9193ZM8.44568 21.9193H9.56975V23.0433H8.44568V21.9193ZM14.066 19.6711H15.1901V20.7952H14.066V19.6711ZM11.8179 19.6711H12.942V20.7952H11.8179V19.6711ZM9.56975 19.6711H10.6938V20.7952H9.56975V19.6711Z" fill="#4B5563"/>
</g>
<defs>
<clipPath id="clip0_0_1947">
<rect width="36" height="36" fill="white"/>
</clipPath>
</defs>
</svg>
