<svg width="40" height="39" viewBox="0 0 40 39" fill="none" xmlns="http://www.w3.org/2000/svg">
<path d="M2.66614 11.762C1.28651 8.97346 -1.44999 2.06233 2.45001 0.243958C3.02984 0.00258586 3.66835 -0.0609403 4.28437 0.0614541C4.90039 0.183849 5.46612 0.486637 5.90964 0.931333L13.9696 9.54383C14.1219 9.69343 14.2432 9.87154 14.3266 10.068C14.41 10.2645 14.454 10.4755 14.4558 10.6889C14.4577 10.9023 14.4176 11.1141 14.3376 11.312C14.2577 11.5099 14.1395 11.6901 13.9899 11.8424C13.8404 11.9947 13.6622 12.116 13.4658 12.1994C13.2693 12.2828 13.0583 12.3267 12.8449 12.3286C12.6314 12.3305 12.4197 12.2903 12.2218 12.2104C12.0239 12.1304 11.8436 12.0123 11.6914 11.8627L3.75001 3.38021C3.94339 9.51783 7.55739 14.1052 11.6166 18.7186C11.9282 19.0181 12.1081 19.4292 12.1166 19.8613C12.1251 20.2934 11.9617 20.7112 11.6621 21.0228C11.3626 21.3344 10.9516 21.5143 10.5194 21.5228C10.0873 21.5313 9.66948 21.3679 9.35789 21.0683C6.69046 18.3049 4.43656 15.1704 2.66614 11.762ZM29.7581 26.3252C29.5367 26.0827 29.2602 25.897 28.9519 25.7838C28.6436 25.6707 28.3126 25.6334 27.9869 25.6752C26.1018 25.9283 24.1842 25.7674 22.3676 25.204C22.0895 25.1219 21.7942 25.1169 21.5134 25.1896C21.2326 25.2623 20.9769 25.4099 20.7735 25.6167C18.3458 29.2827 26.0938 29.0503 27.7805 28.9967L36.6904 38.4851C36.8367 38.6407 37.0122 38.7659 37.2068 38.8536C37.4015 38.9414 37.6116 38.9899 37.825 38.9965C38.0385 39.003 38.2511 38.9675 38.4508 38.8919C38.6505 38.8163 38.8334 38.7021 38.9889 38.5558C39.1445 38.4095 39.2697 38.234 39.3575 38.0393C39.4452 37.8446 39.4938 37.6346 39.5003 37.4211C39.5069 37.2077 39.4714 36.995 39.3957 36.7953C39.3201 36.5956 39.2059 36.4128 39.0596 36.2572L29.7581 26.3252ZM24.875 22.7502C25.942 22.7517 26.9988 22.5426 27.9848 22.135C28.9708 21.7273 29.8666 21.129 30.621 20.3745L39.0239 11.97C39.175 11.8191 39.2949 11.6399 39.3767 11.4427C39.4586 11.2455 39.5008 11.0341 39.5009 10.8206C39.5011 10.6071 39.4592 10.3956 39.3776 10.1983C39.296 10.001 39.1764 9.82167 39.0255 9.67058C38.8746 9.5195 38.6955 9.39961 38.4983 9.31776C38.3011 9.23591 38.0897 9.19371 37.8762 9.19356C37.6626 9.19341 37.4512 9.23531 37.2539 9.31688C37.0565 9.39845 36.8772 9.51809 36.7261 9.66896L28.3233 18.0735C27.6096 18.7809 26.6949 19.2505 25.7041 19.418C24.7134 19.5856 23.6951 19.4429 22.7885 19.0095L34.1489 7.64908C34.3041 7.49918 34.4279 7.31987 34.5131 7.12162C34.5982 6.92336 34.643 6.71013 34.6449 6.49436C34.6468 6.27859 34.6057 6.06461 34.524 5.86491C34.4423 5.6652 34.3216 5.48377 34.169 5.33119C34.0165 5.17862 33.835 5.05795 33.6353 4.97625C33.4356 4.89454 33.2216 4.85343 33.0059 4.8553C32.7901 4.85718 32.5769 4.902 32.3786 4.98717C32.1803 5.07233 32.001 5.19613 31.8511 5.35133L20.4875 16.7117C20.0541 15.8052 19.9114 14.7868 20.079 13.7961C20.2465 12.8053 20.7161 11.8906 21.4235 11.177L29.8313 2.77408C30.1273 2.46761 30.2911 2.05713 30.2874 1.63106C30.2837 1.20499 30.1128 0.797416 29.8115 0.496128C29.5102 0.19484 29.1026 0.0239405 28.6765 0.0202381C28.2505 0.0165356 27.84 0.180327 27.5335 0.476333L19.129 8.87921C17.8075 10.2052 16.9833 11.9462 16.7954 13.8089C16.6074 15.6715 17.0671 17.542 18.0971 19.1053L0.976136 36.2263C0.680129 36.5328 0.516339 36.9433 0.520041 37.3694C0.523743 37.7954 0.694643 38.203 0.995931 38.5043C1.29722 38.8056 1.70479 38.9765 2.13086 38.9802C2.55693 38.9839 2.96741 38.8201 3.27389 38.5241L20.3949 21.4031C21.7239 22.2816 23.2819 22.7501 24.875 22.7502Z" fill="#CD4D33"/>
</svg>
