<svg width="482" height="482" viewBox="0 0 482 482" fill="none" xmlns="http://www.w3.org/2000/svg">
<path d="M232.319 422.553C334.152 422.553 416.704 340.909 416.704 240.197C416.704 139.484 334.152 57.84 232.319 57.84C130.487 57.84 47.9351 139.484 47.9351 240.197C47.9351 340.909 130.487 422.553 232.319 422.553Z" fill="url(#paint0_linear_621_1291)"/>
<path fill-rule="evenodd" clip-rule="evenodd" d="M391.404 356.441C393.084 355.849 394.853 355.062 396.216 353.923C397.836 352.57 398.494 350.827 398.937 348.992C399.504 346.635 399.731 344.124 400.42 341.763C400.675 340.886 401.165 340.555 401.376 340.408C401.908 340.036 402.446 339.937 402.952 339.974C403.551 340.017 404.375 340.242 404.917 341.236C404.994 341.378 405.095 341.595 405.162 341.892C405.211 342.11 405.243 342.791 405.295 343.072C405.426 343.763 405.535 344.455 405.637 345.15C405.978 347.464 406.174 349.429 407.251 351.555C408.712 354.442 410.176 356.207 412.161 356.99C414.081 357.746 416.377 357.604 419.309 357.011C419.588 356.944 419.865 356.887 420.138 356.84C421.431 356.616 422.667 357.456 422.921 358.73C423.175 360.003 422.353 361.243 421.072 361.523C420.804 361.582 420.541 361.637 420.28 361.688C416.317 362.658 411.729 366.121 409.063 369.153C408.241 370.088 407.038 372.702 405.81 374.37C404.904 375.6 403.887 376.411 403.032 376.697C402.459 376.89 401.976 376.861 401.578 376.763C400.998 376.622 400.517 376.311 400.148 375.818C399.948 375.547 399.761 375.185 399.672 374.723C399.63 374.501 399.625 373.935 399.626 373.679C399.376 372.828 399.07 371.997 398.847 371.139C398.315 369.09 397.271 367.793 396.031 366.08C394.871 364.476 393.625 363.469 391.799 362.665C391.562 362.607 389.645 362.143 388.968 361.877C387.979 361.486 387.508 360.832 387.337 360.479C387.046 359.882 387.016 359.359 387.074 358.924C387.16 358.281 387.452 357.731 387.969 357.287C388.29 357.011 388.769 356.742 389.41 356.611C389.906 356.509 391.22 356.45 391.404 356.441ZM402.65 353.103C402.738 353.298 402.833 353.495 402.933 353.694C405.073 357.921 407.466 360.281 410.375 361.426L410.472 361.463C408.527 362.892 406.765 364.489 405.419 366.02C404.865 366.65 404.131 367.959 403.338 369.302C402.618 366.986 401.44 365.349 399.958 363.301C398.826 361.737 397.641 360.561 396.183 359.602C397.314 359.028 398.393 358.355 399.332 357.57C400.897 356.263 401.931 354.748 402.65 353.103Z" fill="#E3E3E3"/>
<ellipse cx="23.1925" cy="204.661" rx="8.73257" ry="8.63656" fill="#E3E3E3"/>
<path d="M84.7044 109.81L84.704 109.81C83.5258 109.058 83.1757 107.489 83.9402 106.31C84.696 105.133 86.2693 104.795 87.4455 105.547C95.1802 110.486 100.247 117.336 102.81 126.073C103.209 127.423 102.419 128.826 101.082 129.215L101.081 129.215C99.7381 129.604 98.322 128.841 97.932 127.493C95.7197 119.95 91.376 114.069 84.7044 109.81Z" fill="#D5D5D5" stroke="#D5D5D5" stroke-width="1.60667"/>
<path d="M107.606 179.519C107.688 179.755 107.769 179.99 107.851 180.226C108.41 181.839 108.968 183.447 109.441 185.09C109.499 185.295 109.476 185.576 109.452 185.866C109.442 185.991 109.431 186.118 109.427 186.242L107.606 179.519ZM107.606 179.519C105.473 173.297 102.713 167.467 99.6484 161.643L107.606 179.519ZM108.668 185.307C108.668 185.309 108.672 185.327 108.673 185.369C108.676 185.42 108.674 185.486 108.669 185.573C108.665 185.644 108.659 185.714 108.652 185.796C108.65 185.818 108.648 185.841 108.646 185.865C108.638 185.971 108.629 186.092 108.624 186.214L108.624 186.223C108.61 186.83 108.634 187.477 108.768 187.989L108.77 187.995C109.022 188.93 109.584 189.581 110.292 189.951L110.296 189.954C110.815 190.221 111.458 190.368 112.23 190.231L112.238 190.229C112.784 190.126 113.662 189.82 114.134 188.708C114.192 188.575 114.224 188.417 114.246 188.3C114.271 188.156 114.295 187.979 114.315 187.771C114.354 187.355 114.377 186.795 114.359 186.105L114.359 186.103C114.339 185.399 114.302 184.478 114.259 183.37C113.969 175.989 113.356 160.368 115.034 146.192C115.654 140.958 116.555 135.947 117.908 131.683C119.265 127.405 121.051 123.96 123.389 121.776C137.419 108.676 155.448 105.612 167.61 114.185C169.143 115.265 170.581 116.471 171.903 117.792C171.674 118.982 171.537 120.48 171.558 122.004C171.581 123.714 171.803 125.524 172.36 126.995L172.36 126.996C172.945 128.538 173.907 129.781 175.222 130.432C175.223 130.432 175.223 130.432 175.223 130.432L175.579 129.712C176.705 130.27 178.164 130.366 179.992 129.443L108.668 185.307ZM108.668 185.307C108.201 183.689 107.652 182.103 107.093 180.49C107.011 180.255 106.929 180.018 106.847 179.781L106.846 179.78C104.731 173.612 101.993 167.822 98.9375 162.017L98.9374 162.017C98.1169 160.457 97.2992 158.892 96.4804 157.325C87.5564 140.239 78.496 122.893 63.9975 110.09L63.9973 110.089C62.9516 109.165 62.8455 107.563 63.7821 106.515C64.7116 105.466 66.3154 105.377 67.3661 106.298L67.3684 106.3C82.5192 119.676 91.9864 137.778 101.142 155.284C101.908 156.749 102.673 158.211 103.438 159.665L103.438 159.665C105.381 163.358 107.209 167.063 108.842 170.869C108.765 162.231 109.033 151.537 110.482 141.897C111.238 136.862 112.338 132.095 113.869 128.004C115.398 123.92 117.375 120.455 119.916 118.082L119.916 118.081C135.654 103.386 156.363 100.051 170.544 110.051L170.544 110.051C171.772 110.918 172.953 111.855 174.073 112.861C181.681 100.198 197.164 95.2331 210.87 101.457C212.15 102.036 212.712 103.54 212.131 104.812L212.131 104.812L212.128 104.817C211.54 106.084 210.038 106.642 208.761 106.065L208.76 106.064C197.029 100.737 183.758 105.347 177.748 116.676C178.988 118.173 180.107 119.777 181.073 121.476M108.668 185.307L181.073 121.476M181.073 121.476C181.073 121.476 181.073 121.476 181.073 121.476L180.374 121.873L181.073 121.476ZM178.289 126.421C177.81 126.656 177.435 126.77 177.129 126.617C176.746 126.429 176.552 125.986 176.364 125.492C176.043 124.65 175.87 123.622 175.805 122.583C176.099 123.037 176.381 123.501 176.653 123.974C176.715 124.084 176.787 124.217 176.862 124.366M178.289 126.421H177.486C177.486 126.359 177.484 126.261 177.479 126.158C177.474 126.07 177.467 126 177.459 125.955C177.459 125.952 177.459 125.95 177.458 125.947C177.457 125.94 177.456 125.934 177.455 125.929C177.452 125.914 177.448 125.899 177.445 125.884C177.44 125.883 177.438 125.883 177.438 125.883C177.438 125.883 177.44 125.883 177.445 125.883C177.443 125.875 177.441 125.868 177.439 125.86M178.289 126.421L177.993 125.816L178.241 125.762M178.289 126.421C178.289 126.276 178.282 125.962 178.241 125.762M177.439 125.86C177.419 125.838 177.392 125.804 177.359 125.75C177.282 125.624 177.209 125.453 177.115 125.207L177.115 125.206C177.016 124.947 176.932 124.665 176.862 124.366M177.439 125.86C177.313 125.333 177.074 124.785 176.862 124.366M177.439 125.86C177.448 125.869 177.455 125.876 177.462 125.881C177.468 125.88 177.476 125.879 177.485 125.877C177.574 125.859 177.713 125.809 177.936 125.7L177.991 125.814L178.241 125.762M176.862 124.366C176.828 124.218 176.796 124.066 176.768 123.911L177.351 123.576M178.241 125.762C178.053 124.906 177.608 124.031 177.351 123.576M177.351 123.576L176.768 123.906C176.677 123.405 176.621 122.87 176.595 122.326C176.856 122.736 177.108 123.153 177.351 123.576Z" fill="#D5D5D5" stroke="#D5D5D5" stroke-width="1.60667"/>
<rect x="147.222" y="152.452" width="317.407" height="113.163" rx="38.56" fill="#D5D5D5"/>
<rect x="278.245" y="191.409" width="107.033" height="14.8411" rx="7.42053" fill="#CD4D33"/>
<rect x="174.903" y="213.671" width="210.914" height="14.8411" rx="7.42054" fill="white"/>
<ellipse cx="424.031" cy="209.961" rx="18.4539" ry="18.5513" fill="#CD4D33"/>
<rect x="14.46" y="247.064" width="317.407" height="113.163" rx="38.56" fill="#CD4D33"/>
<rect x="93.811" y="286.022" width="107.033" height="14.8411" rx="7.42053" fill="#D5D5D5"/>
<rect x="93.811" y="308.283" width="210.914" height="14.8411" rx="7.42054" fill="white"/>
<ellipse cx="60.5945" cy="304.573" rx="18.4539" ry="18.5513" fill="#D5D5D5"/>
<defs>
<linearGradient id="paint0_linear_621_1291" x1="230.898" y1="-1.53985" x2="234.592" y2="638.87" gradientUnits="userSpaceOnUse">
<stop stop-color="#F2F2F2"/>
<stop offset="1" stop-color="#EFEFEF"/>
</linearGradient>
</defs>
</svg>
