<svg width="27" height="27" viewBox="0 0 27 27" fill="none" xmlns="http://www.w3.org/2000/svg">
<g clip-path="url(#clip0_17_8536)">
<path d="M27 13.5C27 6.04422 20.9558 0 13.5 0C6.04422 0 0 6.04422 0 13.5C0 19.831 4.35888 25.1435 10.2389 26.6026V17.6256H7.45524V13.5H10.2389V11.7223C10.2389 7.12746 12.3185 4.9977 16.8296 4.9977C17.685 4.9977 19.1608 5.16564 19.7645 5.33304V9.07254C19.4459 9.03906 18.8924 9.02232 18.205 9.02232C15.9916 9.02232 15.1362 9.86094 15.1362 12.0409V13.5H19.5458L18.7882 17.6256H15.1362V26.9012C21.8209 26.0939 27.0005 20.4023 27.0005 13.5H27Z" fill="#0866FF"/>
<path d="M18.7876 17.6256L19.5452 13.5H15.1356V12.0409C15.1356 9.86092 15.9909 9.0223 18.2044 9.0223C18.8918 9.0223 19.4453 9.03904 19.7639 9.07252V5.33302C19.1602 5.16508 17.6843 4.99768 16.829 4.99768C12.3178 4.99768 10.2383 7.12744 10.2383 11.7223V13.5H7.45459V17.6256H10.2383V26.6025C11.2827 26.8617 12.3751 27 13.4994 27C14.0529 27 14.5988 26.966 15.135 26.9012V17.6256H18.787H18.7876Z" fill="white"/>
</g>
<defs>
<clipPath id="clip0_17_8536">
<rect width="27" height="27" fill="white"/>
</clipPath>
</defs>
</svg>
