<svg width="38" height="35" viewBox="0 0 38 35" fill="none" xmlns="http://www.w3.org/2000/svg">
<path fill-rule="evenodd" clip-rule="evenodd" d="M28.0053 0.13372C27.0186 0.0916574 26.0601 0.198566 25.1515 0.434487L25.1321 0.425984L25.1254 0.441304C22.6444 1.09294 20.5378 2.70709 19.2495 4.87612C17.4165 2.00702 14.1446 0.167932 10.499 0.33218C5.06424 0.577034 0.857032 5.18123 1.10188 10.6159L3.91154 10.4894C3.78391 7.65652 5.34929 5.13951 7.7131 3.91734C6.73128 5.323 6.08033 7.13881 6.35364 9.40521L9.14591 9.06849C8.79927 6.19397 10.7983 4.30541 12.4939 3.30605C12.926 3.40342 13.3436 3.54073 13.7426 3.71406C13.3928 4.10108 13.0929 4.53999 12.8451 5.03404C12.2573 6.20624 12.0038 7.60691 11.9688 9.20611L14.7806 9.26757C14.8105 7.90281 15.0257 6.95977 15.3592 6.29487C15.5441 5.92613 15.7774 5.61817 16.0756 5.35778C16.869 6.20284 17.4575 7.24581 17.7574 8.41003C17.9853 9.80224 18.1009 11.1222 18.1194 12.3724C15.3184 9.97627 11.2808 9.25786 7.69158 10.8614C2.72453 13.0805 0.496874 18.906 2.71598 23.8731L5.28386 22.7259C4.22609 20.3583 4.58242 17.7177 5.9906 15.7513C6.02524 17.6573 6.3679 19.9303 7.42939 22.0533L9.94498 20.7955C8.62357 18.1526 8.70463 15.0854 8.93258 13.3882C9.61096 13.0967 10.3106 12.9201 11.0094 12.8502C10.8714 13.6005 10.8625 14.3678 10.9179 15.087C11.0488 16.7897 11.5642 18.5651 12.0406 19.9941L14.7088 19.1047C14.2476 17.7212 13.8255 16.2154 13.7221 14.8713C13.6683 14.1728 13.7065 13.601 13.8223 13.1417C15.4731 13.6618 16.9263 14.7852 17.8285 16.3768C17.2894 19.6153 16.0559 22.2688 14.5282 24.4028C11.8412 28.1559 8.19657 30.3645 5.64021 31.2682H0.249756V34.0807H37.7498V31.2682H30.6122C30.682 30.8969 30.7185 30.5144 30.7185 30.1237C30.7185 26.5599 27.7255 23.7682 24.156 23.7682C20.5865 23.7682 17.5935 26.5599 17.5935 30.1237C17.5935 30.5144 17.63 30.8969 17.6998 31.2682H11.5649C13.4035 29.9552 15.2509 28.2248 16.815 26.0399C18.8078 23.2564 20.3217 19.7604 20.7861 15.5052C21.6038 14.2559 22.7838 13.3415 24.1188 12.8394C24.2863 13.2585 24.3357 13.7597 24.2791 14.3831C24.1796 15.4774 23.7736 16.7187 23.2908 18.1672L25.9589 19.0567L25.9872 18.972C26.4354 17.6278 26.9479 16.0909 27.08 14.6377C27.1468 13.9025 27.1204 13.1442 26.9308 12.4079C27.6203 12.4467 28.3136 12.5905 28.9884 12.8478C29.2594 14.2008 29.522 16.923 28.0546 19.8581L30.5702 21.1158C31.6726 18.9109 31.9998 16.8042 32.0116 15.1003C33.5034 17.0547 33.8969 19.7467 32.8051 22.1399L35.3639 23.3072C37.5866 18.4351 35.4388 12.6836 30.5667 10.4609C27.297 8.96921 23.6311 9.44597 20.9017 11.3936C20.8752 10.8493 20.8325 10.2947 20.7726 9.7297L20.7827 9.72924C20.774 9.53668 20.7599 9.34564 20.7404 9.1563C20.8449 8.07003 21.1997 7.06177 21.7446 6.18688C21.795 6.26103 21.8429 6.3382 21.8886 6.41856C22.2562 7.06522 22.5202 7.99578 22.621 9.35714L25.4258 9.14952C25.3077 7.55431 24.9817 6.16871 24.3337 5.02868C24.1493 4.70429 23.9425 4.40623 23.7139 4.13347C24.095 3.87319 24.5032 3.65036 24.933 3.47005C26.5983 4.42701 28.4218 6.16133 28.2378 8.86527L31.0438 9.05631C31.2222 6.43479 30.2089 4.4731 28.9042 3.06264C32.1969 3.69753 34.6171 6.66336 34.47 10.1145L37.2799 10.2343C37.508 4.884 33.3556 0.361812 28.0053 0.13372ZM24.156 26.5807C22.0301 26.5807 20.406 28.2207 20.406 30.1237C20.406 30.5243 20.4759 30.909 20.6057 31.2682H27.7063C27.8361 30.909 27.906 30.5243 27.906 30.1237C27.906 28.2207 26.2819 26.5807 24.156 26.5807Z" fill="#CD4D33"/>
</svg>
