<svg width="36" height="36" viewBox="0 0 36 36" fill="none" xmlns="http://www.w3.org/2000/svg">
<g clip-path="url(#clip0_0_1956)">
<path d="M19.7004 27.4143L19.7004 27.4144C16.7016 29.4398 14.1693 31.9741 12.173 34.9466C11.9797 35.2347 12.0562 35.625 12.3443 35.8184L12.3443 35.8184C12.4128 35.8644 12.4897 35.8964 12.5706 35.9127C12.6514 35.929 12.7347 35.9292 12.8157 35.9133C12.8966 35.8974 12.9737 35.8657 13.0424 35.82C13.1111 35.7744 13.1701 35.7156 13.2161 35.6471L13.2784 35.6889L13.2161 35.6471C15.1216 32.8092 17.5397 30.3894 20.4035 28.4551C20.6908 28.2611 20.7665 27.8707 20.5724 27.5831L19.7004 27.4143ZM19.7004 27.4143C19.9876 27.2201 20.378 27.2955 20.5724 27.5831L19.7004 27.4143ZM19.5374 34.8538L19.5375 34.8538C23.7005 30.6681 29.4448 28.2674 35.2969 28.2674C35.6438 28.2674 35.925 28.5488 35.925 28.8955C35.925 29.2424 35.6438 29.5236 35.2969 29.5236C29.7761 29.5236 24.357 31.7894 20.4281 35.7399C20.3051 35.8633 20.1441 35.9248 19.9827 35.9248H19.9826C19.9004 35.9249 19.819 35.9089 19.743 35.8775C19.667 35.8461 19.5979 35.8001 19.5397 35.742L19.5396 35.7419C19.2937 35.4976 19.2925 35.0999 19.5374 34.8538ZM26.0744 24.199L26.0744 24.199C29.0591 23.1427 32.162 22.6072 35.2969 22.6072C35.6438 22.6072 35.925 22.8884 35.925 23.2354C35.925 23.5823 35.6438 23.8635 35.2969 23.8635C32.3049 23.8635 29.3431 24.3747 26.4935 25.383C26.4237 25.4077 26.3531 25.4194 26.2839 25.4194C26.0253 25.4194 25.7829 25.2583 25.6919 25.0006L25.6919 25.0006C25.5761 24.6735 25.7473 24.3146 26.0744 24.199Z" fill="#4B5563" stroke="white" stroke-width="0.15"/>
<mask id="path-2-inside-1_0_1956" fill="white">
<path d="M10.0742 31.1753C14.7 25.1441 21.3962 20.9563 28.785 19.387L28.7888 19.3861C30.9123 18.9354 33.0922 18.7006 35.2969 18.7006C35.685 18.7006 36 18.3856 36 17.9974C36 17.609 35.685 17.2943 35.2969 17.2943C33.3018 17.2949 31.3108 17.4759 29.3483 17.8351V16.3173C31.8897 14.166 33.2847 11.3469 33.2847 8.34487C33.2847 5.24092 31.7936 2.33259 29.0858 0.15536C28.9608 0.0549683 28.8053 0.000244141 28.6451 0.000244141C28.4848 0.000244141 28.3293 0.0549683 28.2044 0.15536C25.4967 2.33259 24.0054 5.24092 24.0054 8.34487C24.0054 11.3469 25.4007 14.166 27.9418 16.3173V18.1227C26.6053 18.4272 25.2888 18.8141 23.9999 19.2809V15.1641C23.9999 14.9708 23.9219 14.7957 23.7956 14.6686V14.6683L19.8581 10.7074C19.7927 10.6417 19.715 10.5896 19.6294 10.554C19.5438 10.5184 19.452 10.5001 19.3593 10.5001H11.3203C11.2276 10.5001 11.1359 10.5184 11.0504 10.554C10.9648 10.5896 10.8871 10.6418 10.8218 10.7075L6.8843 14.6683V14.6686C6.75307 14.8002 6.67948 14.9785 6.67969 15.1643V17.8494C6.18936 17.7594 5.69704 17.6805 5.20312 17.6129V15.1064C7.12491 13.4532 8.17931 11.2971 8.17931 9.00018C8.17931 6.60049 7.029 4.35435 4.94058 2.67487C4.81569 2.57446 4.66025 2.51972 4.5 2.51972C4.33975 2.51972 4.18431 2.57446 4.05942 2.67487C1.97093 4.354 0.820687 6.60042 0.820687 9.00018C0.820687 11.2969 1.87509 13.4529 3.79688 15.1061V17.4511C2.76844 17.3546 1.73607 17.3062 0.703125 17.3058C0.314789 17.3058 0 17.6206 0 18.009C0 18.3973 0.314789 18.7121 0.703125 18.7121C6.32531 18.7121 11.8246 20.1996 16.6726 23.0218C15.5121 23.8105 14.4028 24.6721 13.3514 25.6013C9.42349 23.6002 5.0592 22.5441 0.703125 22.5441C0.315 22.5441 0 22.8589 0 23.2472C0 23.6356 0.315 23.9504 0.703125 23.9504C4.66671 23.9504 8.63824 24.8722 12.2465 26.6225C11.1767 27.6576 10.1778 28.7634 9.25629 29.9324C6.5212 28.7855 3.64662 28.2043 0.703125 28.2043C0.315 28.2043 0 28.5191 0 28.9074C0 29.2957 0.315 29.6105 0.703125 29.6105C3.33984 29.6105 5.91778 30.1105 8.38041 31.0948C7.89356 31.7706 7.43261 32.4646 6.99856 33.1754L5.92713 34.9307C5.7247 35.2619 5.82961 35.6947 6.16085 35.8969C6.27091 35.9645 6.39754 36.0002 6.52669 36.0002C6.64731 36.0003 6.76593 35.9693 6.87113 35.9103C6.97633 35.8513 7.06457 35.7662 7.12737 35.6632L8.19879 33.9078C8.75519 32.9969 9.35795 32.1151 10.0047 31.2659C10.03 31.2379 10.0536 31.208 10.0742 31.1752V31.1753ZM25.4119 8.3448C25.4119 5.84575 26.5553 3.47847 28.6452 1.62342C30.7351 3.47847 31.8785 5.84568 31.8785 8.34487C31.8785 10.5471 30.9897 12.6474 29.3483 14.3846V9.00018C29.3483 8.61185 29.0336 8.29706 28.6452 8.29706C28.2568 8.29706 27.942 8.61185 27.942 9.00018V14.3846C26.3005 12.6474 25.4119 10.547 25.4119 8.3448ZM2.22694 9.00018C2.22694 7.20665 3.02977 5.50326 4.5 4.14974C5.97023 5.50298 6.77306 7.20665 6.77306 9.00018C6.77306 10.4825 6.22406 11.9036 5.20312 13.1165V8.43768C5.20312 8.04935 4.88834 7.73456 4.5 7.73456C4.11188 7.73456 3.79688 8.04935 3.79688 8.43768V13.1165C2.77594 11.9036 2.22694 10.4825 2.22694 9.00018ZM21.6065 14.4609H15.5503L13.0108 11.9063H19.0671L21.6065 14.4609ZM11.3203 12.2005L13.5675 14.4609H9.07334L11.3203 12.2005ZM8.08594 15.8672H14.5547V20.3386C14.2289 20.1886 13.9008 20.0438 13.5703 19.9044V17.5429C13.5703 17.1547 13.2555 16.8397 12.8672 16.8397H9.77344C9.38531 16.8397 9.07031 17.1547 9.07031 17.5429V18.3789C8.74343 18.2935 8.41526 18.2132 8.08594 18.1378V15.8672ZM12.1641 19.3495C11.6068 19.1441 11.0441 18.9537 10.4766 18.7786V18.246H12.1641V19.3495ZM15.9609 21.0266V15.8672H22.5939V19.8267C21.3871 20.3262 20.2109 20.8969 19.0717 21.5358C18.7073 21.7407 18.3467 21.9525 17.9904 22.1711C17.3274 21.7661 16.6505 21.3844 15.9609 21.0266Z"/>
</mask>
<path d="M10.0742 31.1753C14.7 25.1441 21.3962 20.9563 28.785 19.387L28.7888 19.3861C30.9123 18.9354 33.0922 18.7006 35.2969 18.7006C35.685 18.7006 36 18.3856 36 17.9974C36 17.609 35.685 17.2943 35.2969 17.2943C33.3018 17.2949 31.3108 17.4759 29.3483 17.8351V16.3173C31.8897 14.166 33.2847 11.3469 33.2847 8.34487C33.2847 5.24092 31.7936 2.33259 29.0858 0.15536C28.9608 0.0549683 28.8053 0.000244141 28.6451 0.000244141C28.4848 0.000244141 28.3293 0.0549683 28.2044 0.15536C25.4967 2.33259 24.0054 5.24092 24.0054 8.34487C24.0054 11.3469 25.4007 14.166 27.9418 16.3173V18.1227C26.6053 18.4272 25.2888 18.8141 23.9999 19.2809V15.1641C23.9999 14.9708 23.9219 14.7957 23.7956 14.6686V14.6683L19.8581 10.7074C19.7927 10.6417 19.715 10.5896 19.6294 10.554C19.5438 10.5184 19.452 10.5001 19.3593 10.5001H11.3203C11.2276 10.5001 11.1359 10.5184 11.0504 10.554C10.9648 10.5896 10.8871 10.6418 10.8218 10.7075L6.8843 14.6683V14.6686C6.75307 14.8002 6.67948 14.9785 6.67969 15.1643V17.8494C6.18936 17.7594 5.69704 17.6805 5.20312 17.6129V15.1064C7.12491 13.4532 8.17931 11.2971 8.17931 9.00018C8.17931 6.60049 7.029 4.35435 4.94058 2.67487C4.81569 2.57446 4.66025 2.51972 4.5 2.51972C4.33975 2.51972 4.18431 2.57446 4.05942 2.67487C1.97093 4.354 0.820687 6.60042 0.820687 9.00018C0.820687 11.2969 1.87509 13.4529 3.79688 15.1061V17.4511C2.76844 17.3546 1.73607 17.3062 0.703125 17.3058C0.314789 17.3058 0 17.6206 0 18.009C0 18.3973 0.314789 18.7121 0.703125 18.7121C6.32531 18.7121 11.8246 20.1996 16.6726 23.0218C15.5121 23.8105 14.4028 24.6721 13.3514 25.6013C9.42349 23.6002 5.0592 22.5441 0.703125 22.5441C0.315 22.5441 0 22.8589 0 23.2472C0 23.6356 0.315 23.9504 0.703125 23.9504C4.66671 23.9504 8.63824 24.8722 12.2465 26.6225C11.1767 27.6576 10.1778 28.7634 9.25629 29.9324C6.5212 28.7855 3.64662 28.2043 0.703125 28.2043C0.315 28.2043 0 28.5191 0 28.9074C0 29.2957 0.315 29.6105 0.703125 29.6105C3.33984 29.6105 5.91778 30.1105 8.38041 31.0948C7.89356 31.7706 7.43261 32.4646 6.99856 33.1754L5.92713 34.9307C5.7247 35.2619 5.82961 35.6947 6.16085 35.8969C6.27091 35.9645 6.39754 36.0002 6.52669 36.0002C6.64731 36.0003 6.76593 35.9693 6.87113 35.9103C6.97633 35.8513 7.06457 35.7662 7.12737 35.6632L8.19879 33.9078C8.75519 32.9969 9.35795 32.1151 10.0047 31.2659C10.03 31.2379 10.0536 31.208 10.0742 31.1752V31.1753ZM25.4119 8.3448C25.4119 5.84575 26.5553 3.47847 28.6452 1.62342C30.7351 3.47847 31.8785 5.84568 31.8785 8.34487C31.8785 10.5471 30.9897 12.6474 29.3483 14.3846V9.00018C29.3483 8.61185 29.0336 8.29706 28.6452 8.29706C28.2568 8.29706 27.942 8.61185 27.942 9.00018V14.3846C26.3005 12.6474 25.4119 10.547 25.4119 8.3448ZM2.22694 9.00018C2.22694 7.20665 3.02977 5.50326 4.5 4.14974C5.97023 5.50298 6.77306 7.20665 6.77306 9.00018C6.77306 10.4825 6.22406 11.9036 5.20312 13.1165V8.43768C5.20312 8.04935 4.88834 7.73456 4.5 7.73456C4.11188 7.73456 3.79688 8.04935 3.79688 8.43768V13.1165C2.77594 11.9036 2.22694 10.4825 2.22694 9.00018ZM21.6065 14.4609H15.5503L13.0108 11.9063H19.0671L21.6065 14.4609ZM11.3203 12.2005L13.5675 14.4609H9.07334L11.3203 12.2005ZM8.08594 15.8672H14.5547V20.3386C14.2289 20.1886 13.9008 20.0438 13.5703 19.9044V17.5429C13.5703 17.1547 13.2555 16.8397 12.8672 16.8397H9.77344C9.38531 16.8397 9.07031 17.1547 9.07031 17.5429V18.3789C8.74343 18.2935 8.41526 18.2132 8.08594 18.1378V15.8672ZM12.1641 19.3495C11.6068 19.1441 11.0441 18.9537 10.4766 18.7786V18.246H12.1641V19.3495ZM15.9609 21.0266V15.8672H22.5939V19.8267C21.3871 20.3262 20.2109 20.8969 19.0717 21.5358C18.7073 21.7407 18.3467 21.9525 17.9904 22.1711C17.3274 21.7661 16.6505 21.3844 15.9609 21.0266Z" fill="#4B5563" stroke="white" stroke-width="0.3" mask="url(#path-2-inside-1_0_1956)"/>
<path d="M23.4832 26.624L23.4833 26.624C23.6 26.5072 23.6673 26.3456 23.6673 26.18C23.6667 26.0135 23.6005 25.854 23.4831 25.736C23.3652 25.6185 23.2057 25.5523 23.0392 25.5518L23.4832 26.624ZM23.4832 26.624C23.3666 26.7409 23.2046 26.8079 23.0394 26.808L23.4832 26.624ZM22.4111 26.18C22.4111 26.3456 22.4784 26.5072 22.5951 26.624C22.7132 26.7413 22.8727 26.8074 23.0392 26.808L22.4111 26.18ZM22.4111 26.18C22.4118 26.0136 22.4779 25.8542 22.5951 25.7361C22.712 25.6191 22.8741 25.5518 23.039 25.5517L22.4111 26.18ZM28.2015 5.88396L28.2015 5.88393C28.3178 5.76712 28.4802 5.70003 28.6451 5.7C28.8116 5.70049 28.9713 5.76665 29.0893 5.88411C29.2062 6.00075 29.2733 6.16277 29.2733 6.328C29.2727 6.49448 29.2065 6.65402 29.0891 6.77206C28.9725 6.88894 28.8103 6.95622 28.6453 6.95625C28.4788 6.95558 28.3193 6.88933 28.2013 6.77185C28.0844 6.65525 28.0171 6.49318 28.0171 6.32834C28.0176 6.1617 28.0839 6.002 28.2015 5.88396Z" fill="#4B5563" stroke="white" stroke-width="0.15"/>
</g>
<defs>
<clipPath id="clip0_0_1956">
<rect width="36" height="36" fill="white"/>
</clipPath>
</defs>
</svg>
