<svg width="14" height="15" viewBox="0 0 14 15" fill="none" xmlns="http://www.w3.org/2000/svg">
<path d="M3.28135 12.2587C3.28135 12.4337 3.2376 12.5212 3.01885 12.5212C2.8001 12.5212 2.75635 12.4337 2.75635 12.2587V4.29624C2.75635 4.03374 2.75635 3.77124 3.01885 3.77124C3.28135 3.77124 3.28135 4.03374 3.28135 4.29624V12.2587ZM10.3688 3.77124C10.2376 3.77124 10.1501 3.77124 10.0188 3.85874C9.23135 4.20874 8.70635 4.29624 8.18135 4.29624C7.1751 4.29624 6.5626 3.77124 5.38135 3.77124C4.94385 3.77124 4.4626 3.85874 3.8501 4.03374V10.0275C4.41885 9.89624 4.85635 9.80874 5.29385 9.80874C6.5626 9.80874 7.4376 10.3337 8.70635 10.3337C9.23135 10.3337 9.8876 10.2462 10.6313 9.98374C10.8063 9.89624 10.9813 9.67749 10.9813 9.45874V4.33999C10.9813 3.98999 10.6751 3.81499 10.3688 3.81499V3.77124Z" fill="#8F8E87"/>
</svg>
