<svg width="29" height="29" viewBox="0 0 29 29" fill="none" xmlns="http://www.w3.org/2000/svg">
<path d="M26.0549 11.8899H25.1238V11.8419H14.7203V16.4656H21.2531C20.3 19.1573 17.739 21.0894 14.7203 21.0894C10.8901 21.0894 7.78465 17.984 7.78465 14.1538C7.78465 10.3236 10.8901 7.21812 14.7203 7.21812C16.4883 7.21812 18.0968 7.8851 19.3215 8.97457L22.5911 5.705C20.5266 3.78093 17.765 2.59436 14.7203 2.59436C8.33661 2.59436 3.16089 7.77008 3.16089 14.1538C3.16089 20.5374 8.33661 25.7132 14.7203 25.7132C21.104 25.7132 26.2797 20.5374 26.2797 14.1538C26.2797 13.3787 26.1999 12.6221 26.0549 11.8899Z" fill="#FFC107"/>
<path d="M4.49341 8.77344L8.29125 11.5587C9.31888 9.01445 11.8076 7.21812 14.72 7.21812C16.488 7.21812 18.0965 7.8851 19.3212 8.97457L22.5908 5.705C20.5263 3.78093 17.7648 2.59436 14.72 2.59436C10.28 2.59436 6.42961 5.10102 4.49341 8.77344Z" fill="#FF3D00"/>
<path d="M14.7204 25.7129C17.7062 25.7129 20.4192 24.5702 22.4705 22.7121L18.8928 19.6847C17.7323 20.5638 16.2896 21.0891 14.7204 21.0891C11.7138 21.0891 9.16095 19.172 8.19921 16.4966L4.42969 19.4009C6.34277 23.1444 10.2279 25.7129 14.7204 25.7129Z" fill="#4CAF50"/>
<path d="M26.0548 11.8898H25.1237V11.8418H14.7202V16.4656H21.253C20.7953 17.7585 19.9636 18.8734 18.8908 19.6854L18.8926 19.6843L22.4702 22.7117C22.2171 22.9417 26.2796 19.9334 26.2796 14.1537C26.2796 13.3786 26.1999 12.6221 26.0548 11.8898Z" fill="#1976D2"/>
</svg>
