<svg width="45" height="45" viewBox="0 0 45 45" fill="none" xmlns="http://www.w3.org/2000/svg">
<circle cx="22.5" cy="15" r="6.5" stroke="#CD4D33" stroke-width="2" stroke-linecap="round"/>
<path d="M27.8696 14.5625C28.4829 13.5002 29.4931 12.7251 30.678 12.4076C31.8628 12.0901 33.1252 12.2563 34.1875 12.8696C35.2498 13.4829 36.0249 14.4931 36.3424 15.678C36.6599 16.8628 36.4937 18.1252 35.8804 19.1875C35.2671 20.2498 34.2569 21.0249 33.072 21.3424C31.8872 21.6599 30.6248 21.4937 29.5625 20.8804C28.5002 20.2671 27.7251 19.2569 27.4076 18.072C27.0901 16.8872 27.2563 15.6248 27.8696 14.5625L27.8696 14.5625Z" stroke="#CD4D33" stroke-width="2"/>
<path d="M9.11963 14.5625C9.73295 13.5002 10.7431 12.7251 11.928 12.4076C13.1128 12.0901 14.3752 12.2563 15.4375 12.8696C16.4998 13.4829 17.2749 14.4931 17.5924 15.678C17.9099 16.8628 17.7437 18.1252 17.1304 19.1875C16.5171 20.2498 15.5069 21.0249 14.322 21.3424C13.1372 21.6599 11.8748 21.4937 10.8125 20.8804C9.75021 20.2671 8.97507 19.2569 8.65759 18.072C8.34012 16.8872 8.50632 15.6248 9.11963 14.5625L9.11963 14.5625Z" stroke="#CD4D33" stroke-width="2"/>
<path d="M31.6531 33.7499L30.6728 33.9473L30.8344 34.7499H31.6531V33.7499ZM38.8791 31.7768L37.9342 32.1043V32.1043L38.8791 31.7768ZM27.7141 27.5821L27.1093 26.7858L25.9527 27.6643L27.186 28.4313L27.7141 27.5821ZM37.3361 32.7499H31.6531V34.7499H37.3361V32.7499ZM37.9342 32.1043C37.9927 32.273 37.9579 32.4079 37.8682 32.5191C37.7688 32.6424 37.5839 32.7499 37.3361 32.7499V34.7499C38.965 34.7499 40.448 33.2499 39.824 31.4494L37.9342 32.1043ZM31.8751 27.2499C35.569 27.2499 37.206 30.0031 37.9342 32.1043L39.824 31.4494C39.0119 29.1063 36.8938 25.2499 31.8751 25.2499V27.2499ZM28.319 28.3785C29.1896 27.7172 30.3346 27.2499 31.8751 27.2499V25.2499C29.8907 25.2499 28.3222 25.8645 27.1093 26.7858L28.319 28.3785ZM27.186 28.4313C29.436 29.8306 30.327 32.2304 30.6728 33.9473L32.6334 33.5524C32.2439 31.6183 31.1815 28.561 28.2422 26.733L27.186 28.4313Z" fill="#CD4D33"/>
<path d="M17.2859 27.5822L17.814 28.4314L19.0473 27.6644L17.8908 26.7859L17.2859 27.5822ZM6.12094 31.7769L7.0658 32.1044L6.12094 31.7769ZM13.3469 33.75V34.75H14.1656L14.3272 33.9474L13.3469 33.75ZM13.125 27.25C14.6655 27.25 15.8104 27.7173 16.6811 28.3786L17.8908 26.7859C16.6778 25.8646 15.1093 25.25 13.125 25.25V27.25ZM7.0658 32.1044C7.794 30.0033 9.43111 27.25 13.125 27.25V25.25C8.1063 25.25 5.98812 29.1064 5.17608 31.4495L7.0658 32.1044ZM7.66396 32.75C7.41614 32.75 7.23124 32.6425 7.13183 32.5193C7.04214 32.4081 7.00731 32.2732 7.0658 32.1044L5.17608 31.4495C4.55206 33.25 6.03497 34.75 7.66396 34.75V32.75ZM13.3469 32.75H7.66396V34.75H13.3469V32.75ZM14.3272 33.9474C14.673 32.2305 15.5641 29.8307 17.814 28.4314L16.7578 26.7331C13.8185 28.5611 12.7561 31.6184 12.3666 33.5526L14.3272 33.9474Z" fill="#CD4D33"/>
<path d="M22.5 26.25C29.2565 26.25 31.1437 31.1194 31.6707 33.8395C31.8598 34.8155 31.0691 35.625 30.075 35.625H14.925C13.9309 35.625 13.1402 34.8155 13.3293 33.8395C13.8563 31.1194 15.7435 26.25 22.5 26.25Z" stroke="#CD4D33" stroke-width="2" stroke-linecap="round"/>
</svg>
