<svg width="45" height="45" viewBox="0 0 45 45" fill="none" xmlns="http://www.w3.org/2000/svg">
<circle cx="22.5" cy="15" r="6.5" stroke="white" stroke-width="2" stroke-linecap="round"/>
<path d="M27.8696 14.5625C28.4829 13.5002 29.4931 12.7251 30.678 12.4076C31.8628 12.0901 33.1252 12.2563 34.1875 12.8696C35.2498 13.4829 36.0249 14.4931 36.3424 15.678C36.6599 16.8628 36.4937 18.1252 35.8804 19.1875C35.2671 20.2498 34.2569 21.0249 33.072 21.3424C31.8872 21.6599 30.6248 21.4937 29.5625 20.8804C28.5002 20.2671 27.7251 19.2569 27.4076 18.072C27.0901 16.8872 27.2563 15.6248 27.8696 14.5625L27.8696 14.5625Z" stroke="white" stroke-width="2"/>
<path d="M9.11963 14.5625C9.73295 13.5002 10.7431 12.7251 11.928 12.4076C13.1128 12.0901 14.3752 12.2563 15.4375 12.8696C16.4998 13.4829 17.2749 14.4931 17.5924 15.678C17.9099 16.8628 17.7437 18.1252 17.1304 19.1875C16.5171 20.2498 15.5069 21.0249 14.322 21.3424C13.1372 21.6599 11.8748 21.4937 10.8125 20.8804C9.75021 20.2671 8.97507 19.2569 8.65759 18.072C8.34012 16.8872 8.50632 15.6248 9.11963 14.5625L9.11963 14.5625Z" stroke="white" stroke-width="2"/>
<path d="M31.6529 33.7499L30.6726 33.9473L30.8342 34.7499H31.6529V33.7499ZM38.8788 31.7768L37.934 32.1043V32.1043L38.8788 31.7768ZM27.7139 27.5821L27.109 26.7858L25.9525 27.6643L27.1857 28.4313L27.7139 27.5821ZM37.3358 32.7499H31.6529V34.7499H37.3358V32.7499ZM37.934 32.1043C37.9925 32.273 37.9576 32.4079 37.868 32.5191C37.7685 32.6424 37.5836 32.7499 37.3358 32.7499V34.7499C38.9648 34.7499 40.4477 33.2499 39.8237 31.4494L37.934 32.1043ZM31.8748 27.2499C35.5687 27.2499 37.2058 30.0031 37.934 32.1043L39.8237 31.4494C39.0117 29.1063 36.8935 25.2499 31.8748 25.2499V27.2499ZM28.3187 28.3785C29.1894 27.7172 30.3344 27.2499 31.8748 27.2499V25.2499C29.8905 25.2499 28.322 25.8645 27.109 26.7858L28.3187 28.3785ZM27.1857 28.4313C29.4357 29.8306 30.3268 32.2304 30.6726 33.9473L32.6332 33.5524C32.2437 31.6183 31.1813 28.561 28.242 26.733L27.1857 28.4313Z" fill="white"/>
<path d="M17.2862 27.5822L17.8143 28.4314L19.0476 27.6644L17.891 26.7859L17.2862 27.5822ZM6.12118 31.7769L7.06605 32.1044L6.12118 31.7769ZM13.3471 33.75V34.75H14.1658L14.3275 33.9474L13.3471 33.75ZM13.1252 27.25C14.6657 27.25 15.8107 27.7173 16.6813 28.3786L17.891 26.7859C16.678 25.8646 15.1096 25.25 13.1252 25.25V27.25ZM7.06605 32.1044C7.79425 30.0033 9.43135 27.25 13.1252 27.25V25.25C8.10654 25.25 5.98837 29.1064 5.17632 31.4495L7.06605 32.1044ZM7.66421 32.75C7.41638 32.75 7.23148 32.6425 7.13207 32.5193C7.04238 32.4081 7.00756 32.2732 7.06605 32.1044L5.17632 31.4495C4.5523 33.25 6.03521 34.75 7.66421 34.75V32.75ZM13.3471 32.75H7.66421V34.75H13.3471V32.75ZM14.3275 33.9474C14.6733 32.2305 15.5643 29.8307 17.8143 28.4314L16.758 26.7331C13.8187 28.5611 12.7564 31.6184 12.3668 33.5526L14.3275 33.9474Z" fill="white"/>
<path d="M22.5 26.25C29.2565 26.25 31.1437 31.1194 31.6707 33.8395C31.8598 34.8155 31.0691 35.625 30.075 35.625H14.925C13.9309 35.625 13.1402 34.8155 13.3293 33.8395C13.8563 31.1194 15.7435 26.25 22.5 26.25Z" stroke="white" stroke-width="2" stroke-linecap="round"/>
</svg>
