<svg width="45" height="46" viewBox="0 0 45 46" fill="none" xmlns="http://www.w3.org/2000/svg">
<circle cx="22.5" cy="15.3999" r="6.5" stroke="#CD4D33" stroke-width="2" stroke-linecap="round"/>
<path d="M27.8696 14.9624C28.4829 13.9001 29.4931 13.125 30.678 12.8075C31.8628 12.49 33.1252 12.6562 34.1875 13.2695C35.2498 13.8828 36.0249 14.893 36.3424 16.0779C36.6599 17.2627 36.4937 18.5251 35.8804 19.5874C35.2671 20.6497 34.2569 21.4248 33.072 21.7423C31.8872 22.0598 30.6248 21.8936 29.5625 21.2803C28.5002 20.667 27.7251 19.6568 27.4076 18.4719C27.0901 17.2871 27.2563 16.0247 27.8696 14.9624L27.8696 14.9624Z" stroke="#CD4D33" stroke-width="2"/>
<path d="M9.11963 14.9624C9.73295 13.9001 10.7431 13.125 11.928 12.8075C13.1128 12.49 14.3752 12.6562 15.4375 13.2695C16.4998 13.8828 17.2749 14.893 17.5924 16.0779C17.9099 17.2627 17.7437 18.5251 17.1304 19.5874C16.5171 20.6497 15.5069 21.4248 14.322 21.7423C13.1372 22.0598 11.8748 21.8936 10.8125 21.2803C9.75021 20.667 8.97507 19.6568 8.65759 18.4719C8.34012 17.2871 8.50632 16.0247 9.11963 14.9624L9.11963 14.9624Z" stroke="#CD4D33" stroke-width="2"/>
<path d="M31.6531 34.1499L30.6728 34.3473L30.8344 35.1499H31.6531V34.1499ZM38.8791 32.1768L37.9342 32.5043V32.5043L38.8791 32.1768ZM27.7141 27.9822L27.1093 27.1858L25.9527 28.0643L27.186 28.8313L27.7141 27.9822ZM37.3361 33.1499H31.6531V35.1499H37.3361V33.1499ZM37.9342 32.5043C37.9927 32.6731 37.9579 32.808 37.8682 32.9192C37.7688 33.0424 37.5839 33.1499 37.3361 33.1499V35.1499C38.965 35.1499 40.448 33.6499 39.824 31.8494L37.9342 32.5043ZM31.8751 27.6499C35.569 27.6499 37.206 30.4032 37.9342 32.5043L39.824 31.8494C39.0119 29.5063 36.8938 25.6499 31.8751 25.6499V27.6499ZM28.319 28.7785C29.1896 28.1172 30.3346 27.6499 31.8751 27.6499V25.6499C29.8907 25.6499 28.3222 26.2645 27.1093 27.1858L28.319 28.7785ZM27.186 28.8313C29.436 30.2307 30.327 32.6304 30.6728 34.3473L32.6334 33.9525C32.2439 32.0183 31.1815 28.9611 28.2422 27.133L27.186 28.8313Z" fill="#CD4D33"/>
<path d="M17.2859 27.9821L17.814 28.8313L19.0473 28.0643L17.8908 27.1858L17.2859 27.9821ZM6.12094 32.1768L7.0658 32.5043L6.12094 32.1768ZM13.3469 34.1499V35.1499H14.1656L14.3272 34.3473L13.3469 34.1499ZM13.125 27.6499C14.6655 27.6499 15.8104 28.1172 16.6811 28.7785L17.8908 27.1858C16.6778 26.2645 15.1093 25.6499 13.125 25.6499V27.6499ZM7.0658 32.5043C7.794 30.4032 9.43111 27.6499 13.125 27.6499V25.6499C8.1063 25.6499 5.98812 29.5063 5.17608 31.8494L7.0658 32.5043ZM7.66396 33.1499C7.41614 33.1499 7.23124 33.0424 7.13183 32.9192C7.04214 32.808 7.00731 32.6731 7.0658 32.5043L5.17608 31.8494C4.55206 33.6499 6.03497 35.1499 7.66396 35.1499V33.1499ZM13.3469 33.1499H7.66396V35.1499H13.3469V33.1499ZM14.3272 34.3473C14.673 32.6304 15.5641 30.2307 17.814 28.8313L16.7578 27.133C13.8185 28.961 12.7561 32.0183 12.3666 33.9525L14.3272 34.3473Z" fill="#CD4D33"/>
<path d="M22.5 26.6499C29.2565 26.6499 31.1437 31.5193 31.6707 34.2394C31.8598 35.2154 31.0691 36.0249 30.075 36.0249H14.925C13.9309 36.0249 13.1402 35.2154 13.3293 34.2394C13.8563 31.5193 15.7435 26.6499 22.5 26.6499Z" stroke="#CD4D33" stroke-width="2" stroke-linecap="round"/>
</svg>
