<svg width="23" height="20" viewBox="0 0 23 20" fill="none" xmlns="http://www.w3.org/2000/svg">
<path d="M11.4706 18.1765C16.5147 14.7681 21.5588 10.9706 21.5588 5.92646C21.5607 5.26352 21.4315 4.60675 21.1787 3.99391C20.9259 3.38107 20.5544 2.82426 20.0857 2.35549C19.6169 1.88672 19.0601 1.51524 18.4472 1.26243C17.8344 1.00961 17.1776 0.880438 16.5147 0.88234C15.2176 0.88234 13.935 1.37234 12.9478 2.35955L11.4706 3.83675L9.99336 2.35955C9.52593 1.88938 8.97016 1.51626 8.35801 1.26166C7.74587 1.00705 7.08943 0.875977 6.42645 0.875977C5.76346 0.875977 5.10702 1.00705 4.49488 1.26166C3.88273 1.51626 3.32696 1.88938 2.85953 2.35955C2.39052 2.8275 2.01857 3.3835 1.76507 3.99563C1.51156 4.60775 1.38149 5.26392 1.38233 5.92646C1.38233 10.9706 6.42645 14.7681 11.4706 18.1765Z" stroke="#222222" stroke-width="1.44118"/>
</svg>
