<!DOCTYPE svg PUBLIC "-//W3C//DTD SVG 1.1//EN" "http://www.w3.org/Graphics/SVG/1.1/DTD/svg11.dtd">
<!-- Uploaded to: SVG Repo, www.svgrepo.com, Transformed by: SVG Repo Mixer Tools -->
<svg height="800px" width="800px" version="1.1" id="Layer_1" xmlns="http://www.w3.org/2000/svg" xmlns:xlink="http://www.w3.org/1999/xlink" viewBox="0 0 512 512" xml:space="preserve" fill="#000000">
<g id="SVGRepo_bgCarrier" stroke-width="0"/>
<g id="SVGRepo_tracerCarrier" stroke-linecap="round" stroke-linejoin="round"/>
<g id="SVGRepo_iconCarrier"> <path style="fill:#;" d="M453.082,398.847c-3.199,0-6.426-1.002-9.178-3.085c-6.698-5.074-8.017-14.622-2.943-21.32 c27.325-36.072,40.607-73.518,40.607-114.473c0-47.354-17.598-91.345-49.555-123.864c-5.891-5.995-5.809-15.63,0.185-21.516 c5.995-5.896,15.63-5.809,21.516,0.185C491.301,153.021,512,204.582,512,259.968c0,47.833-15.303,91.29-46.776,132.85 C462.233,396.769,457.681,398.847,453.082,398.847z"/> <g> <path style="fill:#;" d="M58.918,398.847c-4.6,0-9.15-2.076-12.142-6.027C15.303,351.258,0,307.801,0,259.968 c0-55.387,20.699-106.947,58.286-145.194c5.885-5.995,15.521-6.076,21.516-0.185c5.995,5.885,6.076,15.521,0.185,21.516 c-31.958,32.519-49.555,76.51-49.555,123.864c0,40.955,13.281,78.401,40.607,114.473c5.074,6.698,3.755,16.246-2.943,21.32 C65.344,397.838,62.117,398.847,58.918,398.847z"/> <path style="fill:#;" d="M115.302,362.626c-4.486,0-8.921-1.973-11.925-5.749c-24.502-30.846-36.41-62.542-36.41-96.909 c0-37.189,13.789-71.839,38.83-97.574c5.859-6.017,15.488-6.153,21.516-0.295c6.023,5.859,6.153,15.494,0.295,21.516 C108.125,203.637,97.4,230.75,97.4,259.967c0,27.598,9.471,52.379,29.805,77.981c5.227,6.578,4.131,16.148-2.452,21.374 C121.957,361.548,118.615,362.626,115.302,362.626z"/> </g> <path style="fill:#;" d="M396.699,362.626c-3.314,0-6.654-1.079-9.45-3.303c-6.583-5.227-7.679-14.796-2.452-21.374 c20.334-25.603,29.805-50.384,29.805-77.981c0-29.217-10.725-56.33-30.208-76.352c-5.859-6.023-5.728-15.657,0.295-21.516 c6.017-5.864,15.651-5.728,21.516,0.295c25.043,25.734,38.83,60.385,38.83,97.574c0,34.367-11.908,66.062-36.41,96.909 C405.62,360.654,401.178,362.626,396.699,362.626z"/> <path style="fill:#E6563A;" d="M256,401.777c-3.505,0-7.003-1.204-9.842-3.613c-6.866-5.826-13.515-11.401-19.925-16.769 c-53.582-44.907-92.298-77.355-92.298-121.428c0-39.637,29.603-70.684,67.398-70.684c26.306,0,43.844,14.502,54.667,28.574 c10.823-14.071,28.361-28.574,54.667-28.574c37.794,0,67.398,31.047,67.398,70.684c0,44.072-38.716,76.522-92.298,121.428 c-6.409,5.369-13.058,10.944-19.925,16.769C263.004,400.573,259.505,401.777,256,401.777z"/> <path style="fill:#D9472B;" d="M265.843,398.165c6.866-5.826,13.515-11.401,19.925-16.769 c53.583-44.906,92.298-77.355,92.298-121.428c0-39.637-29.603-70.684-67.398-70.684c-26.306,0-43.844,14.502-54.667,28.574v183.921 C259.505,401.777,263.004,400.573,265.843,398.165z"/> </g>
</svg>