<svg width="20" height="21" viewBox="0 0 20 21" fill="none" xmlns="http://www.w3.org/2000/svg">
<path fill-rule="evenodd" clip-rule="evenodd" d="M5.12318 8.66139C4.52295 5.66025 6.81842 2.86023 9.87899 2.86023H10.4998C13.1864 2.86023 15.3498 5.06907 15.3498 7.73955C15.3498 9.23292 14.6614 10.6614 13.4774 11.5823L10.9077 13.5809C10.8711 13.6093 10.8498 13.653 10.8498 13.6993V14.2102C10.8498 14.6797 10.4692 15.0602 9.99978 15.0602C9.53033 15.0602 9.14978 14.6797 9.14978 14.2102V13.6993C9.14978 13.1284 9.41335 12.5895 9.86399 12.239L12.4337 10.2404C13.1984 9.64558 13.6498 8.71491 13.6498 7.73955C13.6498 5.99176 12.2314 4.56023 10.4998 4.56023H9.87899C7.8912 4.56023 6.40032 6.3788 6.79016 8.328L6.83327 8.54353C6.92533 9.00386 6.6268 9.45166 6.16647 9.54372C5.70615 9.63579 5.25835 9.33725 5.16628 8.87693L5.12318 8.66139Z" fill="black"/>
<circle cx="9.9998" cy="17.4102" r="0.6" stroke="black" stroke-width="1.2"/>
</svg>
