<svg width="32" height="32" viewBox="0 0 32 32" fill="none" xmlns="http://www.w3.org/2000/svg">
<path d="M16.0002 0.699951C7.5602 0.699951 0.700195 7.55995 0.700195 16C0.700195 24.44 7.5602 31.2999 16.0002 31.2999C24.4402 31.2999 31.3002 24.44 31.3002 16C31.3002 7.55995 24.4402 0.699951 16.0002 0.699951ZM16.0002 28.7C11.9802 28.7 8.4002 26.82 6.0702 23.8899C7.69179 21.7686 9.95341 20.2258 12.5202 19.49C11.595 18.9035 10.833 18.0927 10.305 17.1329C9.77703 16.1731 9.50019 15.0954 9.5002 14C9.5002 12.276 10.185 10.6227 11.404 9.40376C12.623 8.18477 14.2763 7.49995 16.0002 7.49995C17.7241 7.49995 19.3774 8.18477 20.5964 9.40376C21.8154 10.6227 22.5002 12.276 22.5002 14C22.501 15.0969 22.2245 16.1763 21.6966 17.1378C21.1686 18.0993 20.4062 18.9119 19.4802 19.5C22.0473 20.2351 24.3091 21.778 25.9302 23.9C24.7438 25.3967 23.2345 26.6059 21.5149 27.4371C19.7953 28.2684 17.9101 28.7 16.0002 28.7Z" fill="#CD4D33"/>
</svg>
