<svg width="102" height="46" viewBox="0 0 102 46" fill="none" xmlns="http://www.w3.org/2000/svg">
<path fill-rule="evenodd" clip-rule="evenodd" d="M12.1875 8.96875C11.9286 8.96875 11.7188 9.17862 11.7188 9.4375V38.0313H33.2813V9.4375C33.2813 9.17862 33.0714 8.96875 32.8125 8.96875H12.1875ZM36.0938 38.0313V9.4375C36.0938 7.62532 34.6247 6.15625 32.8125 6.15625H12.1875C10.3753 6.15625 8.90625 7.62532 8.90625 9.4375V38.0313H3.75V40.8438H41.25V38.0313H36.0938ZM27.6563 23.5C27.6563 22.7234 28.2859 22.0938 29.0625 22.0938H30C30.7767 22.0938 31.4063 22.7234 31.4063 23.5C31.4063 24.2767 30.7767 24.9063 30 24.9063H29.0625C28.2859 24.9063 27.6563 24.2767 27.6563 23.5Z" fill="#CD4D33"/>
<path fill-rule="evenodd" clip-rule="evenodd" d="M69.5851 8.26748C75.1681 3.05668 83.8319 3.05667 89.4149 8.26748L91.0444 9.78835C93.2216 11.8204 91.7837 15.4684 88.8056 15.4684H80.9062V22.0309H91.6875V24.8434H80.9062V39.3746H78.0937V24.8434H67.3125V22.0309H78.0937V15.4684H70.1944C67.2163 15.4684 65.7784 11.8204 67.9556 9.78835L69.5851 8.26748ZM87.4959 10.3236C82.9935 6.12131 76.0065 6.12131 71.5041 10.3236L69.8746 11.8444C69.5636 12.1347 69.769 12.6559 70.1944 12.6559H88.8056C89.231 12.6559 89.4364 12.1347 89.1254 11.8444L87.4959 10.3236Z" fill="#CD4D33"/>
<path d="M62.1562 14.9996V39.3746H64.9687V31.4059H71.0625C71.3214 31.4059 71.5312 31.6157 71.5312 31.8746V39.3746H74.3437V31.8746C74.3437 30.0624 72.8747 28.5934 71.0625 28.5934H64.9687V14.9996H62.1562Z" fill="#CD4D33"/>
<path d="M96.8437 14.9996V39.3746H94.0312V31.4059H87.9375C87.6786 31.4059 87.4687 31.6157 87.4687 31.8746V39.3746H84.6562V31.8746C84.6562 30.0624 86.1253 28.5934 87.9375 28.5934H94.0312V14.9996H96.8437Z" fill="#CD4D33"/>
<line x1="58.4294" y1="5.45484" x2="46.5227" y2="42.873" stroke="#CD4D33" stroke-width="3"/>
</svg>
