<svg width="13" height="19" viewBox="0 0 13 19" fill="none" xmlns="http://www.w3.org/2000/svg">
<path d="M6.27955 0.0755005C3.09367 0.0755005 0.512207 2.64658 0.512207 5.83131C0.512207 11.338 6.27955 18.5195 6.27955 18.5195C6.27955 18.5195 12.0469 11.3368 12.0469 5.83131C12.0469 2.64774 9.46544 0.0755005 6.27955 0.0755005ZM6.27955 9.01604C5.45357 9.01604 4.66142 8.68792 4.07736 8.10387C3.49331 7.51981 3.16519 6.72766 3.16519 5.90167C3.16519 5.07569 3.49331 4.28354 4.07736 3.69948C4.66142 3.11543 5.45357 2.78731 6.27955 2.78731C7.10554 2.78731 7.89769 3.11543 8.48174 3.69948C9.0658 4.28354 9.39392 5.07569 9.39392 5.90167C9.39392 6.72766 9.0658 7.51981 8.48174 8.10387C7.89769 8.68792 7.10554 9.01604 6.27955 9.01604Z" fill="#CD4D33"/>
</svg>
