<svg width="13" height="15" viewBox="0 0 13 15" fill="none" xmlns="http://www.w3.org/2000/svg">
<path d="M10.4956 10.7876C9.87779 11.4055 8.63151 12.6517 7.69273 13.5905C7.02946 14.2538 5.95538 14.2538 5.29211 13.5905C4.3702 12.6686 3.14695 11.4453 2.48923 10.7876C0.278329 8.57671 0.278329 4.99213 2.48923 2.78123C4.70014 0.570321 8.28472 0.570321 10.4956 2.78123C12.7065 4.99213 12.7065 8.57671 10.4956 10.7876Z" stroke="#9CA3AF" stroke-width="1.27381" stroke-linecap="round" stroke-linejoin="round"/>
<path d="M8.61545 6.78442C8.61545 7.95693 7.66494 8.90744 6.49243 8.90744C5.31992 8.90744 4.36941 7.95693 4.36941 6.78442C4.36941 5.61191 5.31992 4.66141 6.49243 4.66141C7.66494 4.66141 8.61545 5.61191 8.61545 6.78442Z" stroke="#9CA3AF" stroke-width="1.27381" stroke-linecap="round" stroke-linejoin="round"/>
</svg>
