<svg width="15" height="23" viewBox="0 0 15 23" fill="none" xmlns="http://www.w3.org/2000/svg">
<path d="M7.729 0.124023C3.94852 0.124023 0.885254 3.17497 0.885254 6.95409C0.885254 13.4885 7.729 22.0103 7.729 22.0103C7.729 22.0103 14.5728 13.4871 14.5728 6.95409C14.5728 3.17634 11.5095 0.124023 7.729 0.124023ZM7.729 10.7332C6.74886 10.7332 5.80887 10.3438 5.1158 9.65078C4.42274 8.95772 4.03338 8.01772 4.03338 7.03758C4.03338 6.05744 4.42274 5.11744 5.1158 4.42438C5.80887 3.73131 6.74886 3.34195 7.729 3.34195C8.70914 3.34195 9.64914 3.73131 10.3422 4.42438C11.0353 5.11744 11.4246 6.05744 11.4246 7.03758C11.4246 8.01772 11.0353 8.95772 10.3422 9.65078C9.64914 10.3438 8.70914 10.7332 7.729 10.7332Z" fill="#A7AEC1"/>
</svg>
