<svg width="20" height="21" viewBox="0 0 20 21" fill="none" xmlns="http://www.w3.org/2000/svg">
<path fill-rule="evenodd" clip-rule="evenodd" d="M6.75 3.46021C6.75 3.04599 6.41421 2.71021 6 2.71021C5.58579 2.71021 5.25 3.04599 5.25 3.46021V4.719C3.43368 4.84718 2 6.36127 2 8.21021V9.21021C2 11.0591 3.43368 12.5732 5.25 12.7014L5.25 17.9602C5.25 18.3744 5.58579 18.7102 6 18.7102C6.41421 18.7102 6.75 18.3744 6.75 17.9602L6.75 12.7014C8.56632 12.5732 10 11.0591 10 9.21021V8.21021C10 6.36127 8.56632 4.84718 6.75 4.719V3.46021ZM8.5 8.21021C8.5 7.10564 7.60457 6.21021 6.5 6.21021H5.5C4.39543 6.21021 3.5 7.10564 3.5 8.21021V9.21021C3.5 10.3148 4.39543 11.2102 5.5 11.2102H6.5C7.60457 11.2102 8.5 10.3148 8.5 9.21021V8.21021Z" fill="black"/>
<path fill-rule="evenodd" clip-rule="evenodd" d="M13.25 3.46021L13.25 8.719C11.4337 8.84718 10 10.3613 10 12.2102V13.2102C10 15.0591 11.4337 16.5732 13.25 16.7014L13.25 17.9602C13.25 18.3744 13.5858 18.7102 14 18.7102C14.4142 18.7102 14.75 18.3744 14.75 17.9602L14.75 16.7014C16.5663 16.5732 18 15.0591 18 13.2102V12.2102C18 10.3613 16.5663 8.84718 14.75 8.719L14.75 3.46021C14.75 3.04599 14.4142 2.71021 14 2.71021C13.5858 2.71021 13.25 3.04599 13.25 3.46021ZM13.5 10.2102C12.3954 10.2102 11.5 11.1056 11.5 12.2102V13.2102C11.5 14.3148 12.3954 15.2102 13.5 15.2102H14.5C15.6046 15.2102 16.5 14.3148 16.5 13.2102V12.2102C16.5 11.1056 15.6046 10.2102 14.5 10.2102H13.5Z" fill="black"/>
</svg>
