<svg width="24" height="25" viewBox="0 0 24 25" fill="none" xmlns="http://www.w3.org/2000/svg">
<g clip-path="url(#clip0_146_1643)">
<path d="M11.7998 11.6102C9.52982 11.0202 8.79982 10.4102 8.79982 9.46021C8.79982 8.3702 9.80982 7.61021 11.4998 7.61021C13.2798 7.61021 13.9398 8.46021 13.9998 9.71021H16.2098C16.1398 7.9902 15.0898 6.41021 12.9998 5.90021V3.71021H9.99982V5.8702C8.05982 6.29021 6.49982 7.55021 6.49982 9.48021C6.49982 11.7902 8.40982 12.9402 11.1998 13.6102C13.6998 14.2102 14.1998 15.0902 14.1998 16.0202C14.1998 16.7102 13.7098 17.8102 11.4998 17.8102C9.43982 17.8102 8.62982 16.8902 8.51982 15.7102H6.31982C6.43982 17.9002 8.07982 19.1302 9.99982 19.5402V21.7102H12.9998V19.5602C14.9498 19.1902 16.4998 18.0602 16.4998 16.0102C16.4998 13.1702 14.0698 12.2002 11.7998 11.6102Z" fill="#222222"/>
</g>
<defs>
<clipPath id="clip0_146_1643">
<rect width="24" height="24" fill="white" transform="translate(0 0.710205)"/>
</clipPath>
</defs>
</svg>
