<svg width="20" height="21" viewBox="0 0 20 21" fill="none" xmlns="http://www.w3.org/2000/svg">
<path d="M13 11.4102C13.3866 11.4102 13.7 11.0968 13.7 10.7102C13.7 10.3236 13.3866 10.0102 13 10.0102L13 11.4102ZM2.50503 10.2152C2.23166 10.4886 2.23166 10.9318 2.50503 11.2052L6.9598 15.66C7.23316 15.9333 7.67638 15.9333 7.94975 15.66C8.22311 15.3866 8.22311 14.9434 7.94975 14.67L3.98995 10.7102L7.94975 6.75041C8.22312 6.47704 8.22312 6.03382 7.94975 5.76046C7.67638 5.48709 7.23317 5.48709 6.9598 5.76046L2.50503 10.2152ZM13 10.0102L3 10.0102L3 11.4102L13 11.4102L13 10.0102Z" fill="black"/>
<path d="M10 7.21021V6.21021C10 4.82949 11.1193 3.71021 12.5 3.71021H14.5C15.8807 3.71021 17 4.82949 17 6.21021V15.2102C17 16.5909 15.8807 17.7102 14.5 17.7102H12.5C11.1193 17.7102 10 16.5909 10 15.2102V14.7102" stroke="black" stroke-width="1.5" stroke-linecap="round"/>
</svg>
