<svg width="13" height="12" viewBox="0 0 13 12" fill="none" xmlns="http://www.w3.org/2000/svg">
<path d="M6.35001 10.0709L3.18876 11.7205C3.14421 11.747 3.09308 11.7603 3.04128 11.759C2.98948 11.7576 2.93912 11.7417 2.896 11.7129C2.85288 11.6842 2.81876 11.6439 2.79757 11.5966C2.77639 11.5493 2.769 11.497 2.77626 11.4457L3.32639 7.87192V7.59667L0.714512 5.1228C0.643687 5.10266 0.583475 5.05575 0.546618 4.99201C0.509761 4.92827 0.499151 4.85268 0.517032 4.78126C0.534914 4.70983 0.579884 4.64816 0.642427 4.6093C0.70497 4.57044 0.780178 4.55744 0.852137 4.57304L4.42589 4.09192C4.56314 4.09192 4.63214 4.0233 4.63214 3.88567L6.35001 0.65542C6.41901 0.44917 6.76251 0.44917 6.83114 0.65542L8.41176 3.88567C8.48076 4.0233 8.54939 4.09192 8.68664 4.09192L12.2604 4.57304C12.4666 4.57304 12.6043 4.91654 12.398 5.1228L9.78651 7.52804L9.64889 7.80292L10.3363 11.3767C10.3363 11.5829 10.0614 11.7892 9.85514 11.6515L6.62489 10.1395H6.35001V10.0709Z" fill="#FFAC14"/>
</svg>
