<svg width="32" height="31" viewBox="0 0 32 31" fill="none" xmlns="http://www.w3.org/2000/svg">
<path d="M21.7465 3L28.0972 10.4093L15.9999 26.3567L3.90186 10.4093L10.2525 3H21.7465Z" fill="#FFA78F"/>
<path d="M22.9732 0.333374L31.5227 10.3078L15.9999 30.7698L0.477051 10.3078L9.02659 0.333374H22.9732ZM11.0284 11H2.67638L14.8491 27.046L11.0284 11ZM29.3224 11H20.9704L17.1504 27.046L29.3224 11ZM19.6004 11H12.3991L15.9999 26.1227L19.6004 11ZM8.98705 2.42671L2.78172 9.66671H10.7111L8.98705 2.42671ZM21.8224 1.66604H10.1771L12.0817 9.66671H19.9177L21.8224 1.66604ZM23.0117 2.42671L21.2877 9.66671H29.2171L23.0117 2.42671Z" fill="#CD4D33"/>
</svg>
