<svg width="80" height="38" viewBox="0 0 87 48" fill="none" xmlns="http://www.w3.org/2000/svg">
<rect x="1" y="0.5" width="85" height="47" rx="23.5" fill="white"/>
<rect x="1" y="0.5" width="85" height="47" rx="23.5" stroke="#DDDDDD"/>
<path d="M16.5 24H30.5M16.5 28H30.5M16.5 20H30.5" stroke="#222222" stroke-width="1.5"/>
<g clip-path="url(#clip0_136_1490)">
<path d="M61.5 8.70001C53.06 8.70001 46.2 15.56 46.2 24C46.2 32.44 53.06 39.3 61.5 39.3C69.94 39.3 76.7999 32.44 76.7999 24C76.7999 15.56 69.94 8.70001 61.5 8.70001ZM61.5 36.7C57.48 36.7 53.9 34.82 51.57 31.89C53.1915 29.7686 55.4532 28.2258 58.02 27.49C57.0947 26.9035 56.3327 26.0927 55.8048 25.1329C55.2768 24.1731 54.9999 23.0955 55 22C55 20.2761 55.6848 18.6228 56.9038 17.4038C58.1227 16.1848 59.776 15.5 61.5 15.5C63.2239 15.5 64.8772 16.1848 66.0961 17.4038C67.3151 18.6228 68 20.2761 68 22C68.0007 23.097 67.7243 24.1763 67.1963 25.1379C66.6683 26.0994 65.906 26.9119 64.9799 27.5C67.547 28.2352 69.8089 29.7781 71.43 31.9C70.2436 33.3968 68.7342 34.606 67.0147 35.4372C65.2951 36.2684 63.4099 36.7001 61.5 36.7Z" fill="#CD4D33"/>
</g>
<defs>
<clipPath id="clip0_136_1490">
<rect width="32" height="32" fill="white" transform="translate(45.5 8)"/>
</clipPath>
</defs>
</svg>
