<svg width="24" height="24" viewBox="0 0 24 24" fill="none" xmlns="http://www.w3.org/2000/svg">
<path d="M11.5296 20.3571C16.5738 16.9487 21.6179 13.1512 21.6179 8.10712C21.6198 7.44419 21.4906 6.78741 21.2378 6.17457C20.985 5.56173 20.6135 5.00492 20.1447 4.53615C19.676 4.06738 19.1192 3.69591 18.5063 3.44309C17.8935 3.19027 17.2367 3.0611 16.5738 3.063C15.2767 3.063 13.9941 3.553 13.0069 4.54021L11.5296 6.01742L10.0524 4.54021C9.58501 4.07004 9.02924 3.69693 8.4171 3.44232C7.80495 3.18771 7.14851 3.05664 6.48553 3.05664C5.82255 3.05664 5.1661 3.18771 4.55396 3.44232C3.94181 3.69693 3.38604 4.07004 2.91862 4.54021C2.4496 5.00816 2.07766 5.56417 1.82415 6.17629C1.57065 6.78841 1.44058 7.44458 1.44141 8.10712C1.44141 13.1512 6.48553 16.9487 11.5296 20.3571Z" stroke="#222222" stroke-width="1.44118"/>
</svg>
